<svg width="358" height="494" viewBox="0 0 358 494" fill="none" xmlns="http://www.w3.org/2000/svg">
<path d="M156 492C147 492 135 489.882 125.5 486C113.901 481.26 103.663 473.973 96.0451 467.653C90.8982 463.383 86.5463 458.237 82.9733 452.584C71.2366 434.015 65.4472 419.806 57.8713 400.163C56.2909 396.065 55.0075 391.849 54.0769 387.556C49.6266 367.03 47.7288 354.247 44.9998 331.5C41.9964 306.466 40.5 302 40.5 277C40.6281 258.521 48.5 220 48.5 220C48.5 220 56.5 180.5 78 158C101 138 116 132 142.5 132C168.5 135 174.031 141.941 190.5 144C218.5 147.5 220.5 141.5 240.5 144C251.827 144.666 262.87 146.74 272.931 150.832C288.89 157.323 297.311 173.883 300.605 190.794C307.985 228.685 308.616 253.975 307.351 286.305C307.138 291.757 306.388 297.191 305.117 302.497C296.987 336.448 293.311 343.671 284 373C274.384 396.903 270.5 405.5 253.5 430.5C236.5 455.5 231.5 458.5 217 470.5C194.804 486 191 490 156 492Z" stroke="white" stroke-width="3"/>
<path d="M121 401.5C120.368 401.461 119.528 401.343 118.516 401.157C102.717 398.257 101.822 399.476 116.5 406C121 408 119.5 410 123 412.5C124.558 413.902 125.533 414.964 126.349 415.838C130.472 420.25 137.033 421.202 143.057 420.775C145.052 420.633 146.999 420.445 149.5 420.5C153.812 420.594 154.757 420.722 159 421.5C163.802 422.38 165.127 423.71 170 424C176.855 424.408 185.09 419.965 191.5 417.5C198 415 202 414.5 206.5 413.5C212.903 412.077 212.776 410.349 206.23 409.931C203.221 409.739 200.044 409.443 196.5 409C191.044 408.318 190.498 405.767 183 405C174.398 404.121 167.623 406.636 159 406C149.691 405.313 148.315 402.088 139 401.5C132.349 401.08 127.652 401.909 121 401.5Z" stroke="white" stroke-width="2"/>
<path d="M137 410C137 410 140.119 410.687 142.483 410.889C144.522 411.063 144.966 411.275 147 411.5C149.489 411.776 150.779 412.096 153.209 412.667C155.158 413.124 155.745 413.321 157.738 413.556C160.047 413.827 161.847 413.556 164.174 413.556C166.595 413.556 166.76 413.528 169.18 413.556C172.439 413.593 174.744 413.863 178 414" stroke="white"/>
<path d="M189 287C187.5 302.5 187.5 305.5 189 318.5C189.695 324.522 191.136 329.295 194 340C195.378 344.408 199.184 350.334 202.492 355.436C206.326 361.35 204.1 362.525 197.5 365V365C193.5 366.5 191.725 366.289 187.5 368C182.829 369.892 181.5 371 178.5 374C175.787 376.713 171.328 378.241 167.5 378C162.967 377.715 161.095 376.776 157.5 374C154.214 371.463 152.245 368.588 149 366C143.3 361.454 140.5 360.5 135.5 358.5V358.5C129.253 356.001 129.226 351.892 134.194 347.355C137.722 344.132 140.74 340.761 142.5 338C148.748 328.196 149.5 326.5 154.5 316C159 306.55 160.5 301 163.5 283" stroke="white" stroke-width="2"/>
<path d="M51 269C51 269 50.827 269.937 50.5733 271.397C49.811 275.784 49.4517 280.241 49.6018 284.691C49.9401 294.719 51.1954 302.29 54.4549 309.887C56.2478 314.067 58.8327 317.872 61.9244 321.207C71.483 331.518 81.5001 336.162 96.5 337.5C114.961 339.146 130 333 141.5 321C154.5 308.5 158.124 297.877 160.5 280M51 269C51 269 51.8166 266.5 53.5 263.5M51 269L42.5 268L35.5 261L31.5 237L37 256L43 261.5L53.5 263.5M160.5 280C169.5 278 187.5 281 193.5 285M160.5 280C161.096 275.513 158.653 271.563 156.593 269.113C155.012 267.232 153.147 265.593 151.109 264.22C140.392 256.998 117.828 252.141 96.5 248.5M193.5 285C191.5 302 191.658 313.464 200.5 328C209.348 342.547 218.929 350.088 235.5 354C253 356.5 264.5 355 277.5 347C291.153 337.89 297.238 326.757 299.5 310.5C300.254 305.085 300.5 301 300.5 301M193.5 285C199 274 204 271.5 211.5 269.5C218.5 267.633 232.5 266.628 249.5 268M300.5 301H311L315.5 298L321 270.5L314.5 293.5L311.5 295.5H300.042M300.5 301C300.5 301 300.6 298.707 300.042 295.5M249.5 268C263.168 270.071 272.719 270.769 285.259 277.201C290.899 280.094 296.301 284.077 298.552 290.003C299.293 291.952 299.755 293.847 300.042 295.5M249.5 268C221.187 265.657 206.111 265.819 178.5 262.5C146.246 258.622 131 255.5 96.5 248.5M96.5 248.5C86.5106 248.5 79.3706 248.856 74.0386 249.511C65.8348 250.518 58.8959 255.374 54.3242 262.26C54.0532 262.668 53.7787 263.082 53.5 263.5" stroke="white" stroke-width="2"/>
<path d="M329.5 298.5C319 302 312 317.5 308 333" stroke="white"/>
<path d="M287.5 364.5C287.5 364.5 289.571 374.5 295 374.5C295.661 374.5 296.323 374.486 296.982 374.441C304.533 373.921 307.521 365.347 308.338 357.823C308.481 356.502 308.788 354.995 309.5 353C315.5 342.5 323.099 333.868 330.5 321.5C336.185 312 342 302.5 346 288.5C347.31 281.948 347.858 273.869 345.975 264.93C345.439 262.389 343.609 260.19 341.046 260.613C337.664 261.17 333.463 263.241 330.541 264.875C328.136 266.22 325.876 267.859 324.409 270.191C320.005 277.189 314.731 291.937 306 301.5" stroke="white" stroke-width="2"/>
<path d="M103 100.5C103 100.5 106.361 54.7755 126.5 38.5C140.86 26.8947 153.176 26.2615 171.5 24C187.991 21.9648 197.637 23.1147 214 26C233.277 29.399 243.964 33.304 261.5 42C279.744 51.0471 304.5 71.5 304.5 71.5M114 113.5C114 113.5 114.289 79.4995 126.5 63.5C135.053 52.2931 142.72 47.9519 155.5 42C172.204 34.2208 183.598 33.0598 202 34C220.643 34.9526 229.597 38.246 247 45C266.458 52.5515 278.067 60.0232 295.5 71.5" stroke="white" stroke-width="2"/>
<path d="M127.776 114.356C128.998 110.115 130.148 105.871 131.166 101.572C132.33 96.6568 132.562 91.1895 135.353 86.8387C138.763 81.5235 143.306 75.6837 149.09 72.792C155.31 69.682 161.937 67.6794 167.967 64.1955C170.968 62.4614 174.768 61.8445 178.025 60.7171C181.894 59.3779 185.693 57.7825 189.591 56.5296C196.761 54.2249 205.092 53.8687 212.544 53.029C216.708 52.5598 221.072 52.8177 225.261 52.5638C229.467 52.3089 233.431 52.0987 237.624 52.6302C246.316 53.7319 254.473 56.8697 262.838 59.3213C273.493 62.4444 284.728 64.6757 295.672 66.4997" stroke="white" stroke-width="2" stroke-linecap="round" stroke-linejoin="round"/>
<path d="M148.115 114.755C151.958 107.973 155.203 100.29 160.079 94.1944C162.338 91.3717 165.314 89.0226 168.033 86.6615C170.737 84.3133 173.2 81.6606 176.054 79.483C180.915 75.7729 185.967 74.5295 191.585 72.3932C196.562 70.5003 200.941 67.6583 206.163 66.3225C211.701 64.9059 217.477 64.434 223.068 63.1099C229.501 61.5864 235.937 60.954 242.543 60.6063C252.666 60.0735 262.957 60.1189 273.096 60.1189C278.281 60.1189 283.405 61.7141 288.494 61.7141" stroke="white" stroke-width="2" stroke-linecap="round" stroke-linejoin="round"/>
<path d="M179.621 112.761C182.669 107.448 185.419 102.194 187.907 96.5872C190.392 90.9865 193.429 85.638 198.187 81.6542C202.074 78.4005 206.289 75.861 210.506 73.08C218.644 67.7121 228.014 65.26 237.757 64.5943C243.625 64.1934 249.601 64.5057 255.482 64.5057C260.81 64.5057 266.034 63.8962 271.345 63.7302C276.606 63.5658 281.856 63.6431 287.076 64.2841C290.434 64.6965 293.884 65.3033 297.268 65.3033" stroke="white" stroke-width="2" stroke-linecap="round" stroke-linejoin="round"/>
<path d="M206.341 114.356C207.936 108.087 210.864 102.152 213.608 96.3213C215.662 91.9557 217.831 87.8453 220.698 83.9584C226.172 76.5343 235.272 71.4899 244.271 69.7787C255.123 67.7152 266.731 68.0948 277.726 68.0948C286.706 68.0948 296.514 68.9938 305.244 66.4996" stroke="white" stroke-width="2" stroke-linecap="round" stroke-linejoin="round"/>
<path d="M223.09 125.523C228.374 114.329 235.165 103.205 244.714 95.1249C253.027 88.0915 264.256 84.4475 274.558 81.2775C279.188 79.8528 284.238 78.9003 289.07 78.5524C294.207 78.1826 298.908 79.3188 303.87 80.4578C309.654 81.7851 316.013 83.6482 321.994 83.6482" stroke="white" stroke-width="2" stroke-linecap="round" stroke-linejoin="round"/>
<path d="M231.066 131.903C235.985 125.411 243.974 121.667 250.918 117.857C255.237 115.487 259.857 113.579 264.566 112.141C268.392 110.972 271.918 108.849 275.732 107.776C282.331 105.92 288.683 103.091 295.495 102.082C300.778 101.299 305.877 100.797 311.226 100.797C315.214 100.797 319.202 100.797 323.19 100.797C325.61 100.797 327.948 101.826 330.28 102.303C332.307 102.718 334.079 102.962 335.952 103.899C337.034 104.439 338.672 105.249 339.763 105.56C340.902 105.886 341.479 106.709 342.532 107.178C345.147 108.34 346.095 111.888 348.713 112.761" stroke="white" stroke-width="2" stroke-linecap="round" stroke-linejoin="round"/>
<path d="M247.816 131.106C254.447 127.889 261.072 125.113 268.155 123.13C271.955 122.066 275.821 121.26 279.632 120.25C286.872 118.328 294.271 117.501 301.566 115.951C306.469 114.909 311.423 114.312 316.41 115.065C319.642 115.553 323.069 116.519 326.292 116.749C329.122 116.951 331.78 118.743 334.755 118.743C336.65 118.743 338.454 119.441 340.338 119.541C341.696 119.612 343.543 120.057 344.725 120.648C345.379 120.975 348.831 122.074 347.517 122.731" stroke="white" stroke-width="2" stroke-linecap="round" stroke-linejoin="round"/>
<path d="M261.774 138.683C276.805 129.999 297.869 132.104 313.796 136.778C318.589 138.184 323.55 139.538 327.976 141.874C331.456 143.71 334.377 146.559 337.946 148.343C339.914 149.327 340.263 150.169 342 151.5C344.466 153.389 344.312 153.947 347 155.5C348.226 156.208 350.674 159.739 351.416 161C352.493 162.83 352.798 166.972 353.5 169C353.915 170.199 355.006 194.742 355.006 196" stroke="white" stroke-width="2" stroke-linecap="round" stroke-linejoin="round"/>
<path d="M268.953 138.683C277.728 139.834 286.515 140.79 295.318 141.696C303.182 142.506 312.203 143.967 319.202 147.856C321.72 149.255 322.927 152.919 324.807 155.034C327.579 158.153 329.983 161.567 332.362 165.004C335.281 169.22 341.159 172.174 342.643 177.367C343.446 180.178 344.055 183.932 345.722 186.34C346.661 187.696 347.587 189.471 348.315 190.926" stroke="white" stroke-width="2" stroke-linecap="round" stroke-linejoin="round"/>
<path d="M272.941 145.862C285.575 153.232 299.207 158.338 311.314 166.688C315.995 169.916 320.936 173.246 323.899 178.253C325.94 181.702 327.704 185.412 329.593 188.955C331.092 191.766 333.918 193.683 335.331 196.51C336.296 198.439 337.043 200.624 337.724 202.669C338.742 205.722 339.375 209.82 341.136 212.462" stroke="white" stroke-width="2" stroke-linecap="round" stroke-linejoin="round"/>
<path d="M308.434 192.123C311.352 197.822 314.701 201.943 320.177 205.261C321.694 206.181 323.239 207.153 324.94 207.676C325.482 207.843 326.159 208.03 326.38 208.474" stroke="white" stroke-width="2" stroke-linecap="round" stroke-linejoin="round"/>
<path d="M305.643 204.486C310.024 208.953 314.089 213.394 318.847 217.491C322.36 220.516 326.292 223.141 329.571 226.42" stroke="white" stroke-width="2" stroke-linecap="round" stroke-linejoin="round"/>
<path d="M314.018 226.819C315.427 233.709 320.207 239.719 325.982 243.568" stroke="white" stroke-width="2" stroke-linecap="round" stroke-linejoin="round"/>
<path d="M313.22 243.568C314.886 246.902 316.726 249.897 318.714 253.051C319.595 254.449 321.383 256.33 323.19 256.33" stroke="white" stroke-width="2" stroke-linecap="round" stroke-linejoin="round"/>
<path d="M18.2173 228.308C18.2173 221.687 19.0498 215.542 19.612 209.076C20.0362 204.199 19.2781 199.08 19.2781 194.362C19.2781 192.167 18.9056 189.604 19.2977 187.448C20.0316 183.411 21.5807 179.34 22.0872 175.288C22.4716 172.213 23.898 169.125 24.6607 166.074C25.5111 162.673 25.2893 158.984 25.2893 155.466C25.2893 148.288 24.2285 141.154 24.2285 134.054C24.2285 128.344 26.2946 122.833 28.8253 117.631C29.9438 115.332 30.9507 112.991 32.1649 110.736C33.2335 108.751 33.5806 106.1 35.1705 104.41C38.0057 101.398 39.4792 97.0764 42.4389 94.1167C43.5666 92.989 44.1172 90.7796 44.9141 89.3627C45.9202 87.5742 46.8895 85.9552 47.7429 84.0587C49.6258 79.8747 53.1521 76.4005 56.249 73.0971C57.8862 71.3508 60.8056 69.9916 62.8495 68.7557C64.9967 67.4574 67.0153 65.8382 69.4894 65.2197C71.1457 64.8056 72.5278 64.0765 74.1648 63.6088C75.947 63.0996 77.8805 63.3623 79.6652 62.7445C82.4491 61.7808 84.9534 60.4132 87.3462 58.7566C89.3551 57.3658 90.8766 56.1812 92.4734 54.3563C93.7655 52.8796 96.2515 52.1123 97.0702 50.2702C97.8835 48.4403 99.4077 46.3814 100.803 44.9466C102.639 43.0579 103.544 40.571 104.928 38.346C107.832 33.6787 111.7 29.3716 115.104 25.0663C117.717 21.7617 121.113 19.3059 124.494 16.9925C126.69 15.4902 129.007 13.7419 131.428 12.6117C133.542 11.6252 136.186 11.7668 138.265 10.6473C141.603 8.84963 145.915 8.85821 149.403 7.30774C152.74 5.82467 156.359 5.05937 159.658 3.49671C164.736 1.09123 169.731 1.65013 175.039 1.65013C181.07 1.65013 186.643 3.90925 192.385 5.46116C196.943 6.69286 202.061 9.73736 205.468 12.9653C207.173 14.5804 209.03 16.5131 210.497 18.3479C211.009 18.9872 211.983 20.0229 212.344 20.7446" stroke="white" stroke-width="2" stroke-linecap="round" stroke-linejoin="round"/>
<path d="M192.896 4.83252C203.713 4.83252 214.416 5.94901 224.347 10.2937C231.147 13.2687 238.615 14.92 245.602 17.3657C248.352 18.3281 251.24 18.5051 253.892 19.6837C255.289 20.3044 256.237 22.1418 257.605 22.8662C258.878 23.5399 260.192 24.2174 261.416 24.9878C263.358 26.2105 265.531 26.8718 267.525 27.9934C269.343 29.016 271.304 29.7156 273.163 30.6454C274.409 31.2679 276.369 31.8934 277.407 32.767C278.74 33.8901 280.895 34.1759 282.436 35.2422C284.244 36.4944 285.684 38.2122 287.641 39.2889C288.85 39.9538 290.151 40.7408 291.02 41.8034C295.283 47.0136 298.724 52.6503 302.669 58.0298C303.739 59.4886 304.694 61.03 305.773 62.4694C307.077 64.2077 308.952 65.3731 310.468 66.8894C312.178 68.5996 312.877 69.7364 313.827 71.9381C315.019 74.6967 317.172 78.1905 319.308 80.3263C320.767 81.7848 321.734 85.3404 323.375 86.1607" stroke="white" stroke-width="2" stroke-linecap="round" stroke-linejoin="round"/>
<path d="M311.706 82.6248C321.135 87.2467 329.561 93.2398 334.965 102.426C335.336 103.057 336.185 103.183 336.812 103.487C338.024 104.076 339.123 105.123 340.367 105.589C342.308 106.317 342.911 108.039 344.591 109.066C346.346 110.139 347.71 111.412 349.541 112.327" stroke="white" stroke-width="2" stroke-linecap="round" stroke-linejoin="round"/>
<path d="M330.093 103.487C335.404 105.763 339.481 110.733 342.469 115.588C343.341 117.004 344.323 118.493 345.121 119.93C345.896 121.323 347.494 122.377 348.127 123.642" stroke="white" stroke-width="2" stroke-linecap="round" stroke-linejoin="round"/>
<path d="M314.888 116.57C317.986 120.659 323.78 123.386 328.502 125.234C330.575 126.045 331.877 127.643 333.629 128.77C337.001 130.937 340.156 133.018 342.626 136.195C343.503 137.322 343.688 139.044 344.768 139.908C345.188 140.244 345.501 141.515 345.73 142.03C346.289 143.286 347.274 144.343 347.95 145.546C349.61 148.497 352.128 151.172 353.097 154.563C354.045 157.882 355.706 161.406 355.906 165.014C356.098 168.476 356.063 172.082 356.26 175.622C356.355 177.335 356.613 179.115 356.613 180.926C356.613 182.688 355.906 184.391 355.906 186.23C355.906 187.718 355.553 189.51 355.553 191.18C355.553 192.987 356.26 194.34 356.26 196.13" stroke="white" stroke-width="2" stroke-linecap="round" stroke-linejoin="round"/>
<path d="M349.188 162.185C349.188 167.491 351.735 173.137 349.109 178.097C347.943 180.299 347.773 182.277 347.773 184.815C347.773 187.05 348.834 188.58 348.834 190.826" stroke="white" stroke-width="2" stroke-linecap="round" stroke-linejoin="round"/>
<path d="M346.005 186.23C343.709 188.024 342.694 190.789 342.096 193.479C341.573 195.832 342.116 197.854 342.116 200.197C342.116 202.377 342.116 204.558 342.116 206.739C342.116 207.595 341.982 212.463 341.408 212.75" stroke="white" stroke-width="2" stroke-linecap="round" stroke-linejoin="round"/>
<path d="M339.64 212.75C340.967 216.233 339.715 220.169 340.682 223.554C341.238 225.5 340.348 227.811 340.348 229.723C340.348 232.524 338.554 235.041 338.246 237.816C338.019 239.857 336.558 242.272 335.574 244.043C334.579 245.835 334.492 247.76 333.708 249.524C333.067 250.966 332.568 253.474 332.568 255.005C332.568 256.538 331.241 257.94 331.154 259.425C331.123 259.958 330.597 261.11 330.427 261.704C330.246 262.34 329.625 263.018 329.032 263.315" stroke="white" stroke-width="2" stroke-linecap="round" stroke-linejoin="round"/>
<path d="M114.494 120.949C110.294 122.406 106.017 123.053 101.789 124.337C97.5078 125.636 93.3795 127.165 89.1769 128.666C86.8311 129.504 85.2215 131.418 83.2475 132.808C80.6083 134.665 77.3892 136.878 75.1064 139.16C70.7222 143.545 67.4327 148.623 63.7652 153.56C62.7425 154.937 61.4059 156.343 60.5182 157.796C59.6319 159.246 59.4982 160.946 58.5888 162.36C56.8574 165.054 54.8201 167.472 52.9888 170.078C48.1032 177.031 43.6342 184.951 41.7418 193.278C41.0573 196.29 39.1041 199.102 38.3536 202.172C37.3744 206.178 34.7811 209.988 34.1183 214.031C33.2166 219.531 31.9065 225.081 31.9065 230.642C31.9065 234.207 30.2124 237.356 30.2124 240.807" stroke="white" stroke-width="2" stroke-linecap="round" stroke-linejoin="round"/>
<path d="M103.483 117.984C100.16 119.83 96.2538 120.24 92.7534 121.796C87.3791 124.184 82.2106 127.527 76.9888 130.266C71.9546 132.907 66.3001 134.821 61.883 138.502C57.5024 142.152 53.6133 145.703 50.4242 150.525C46.8586 155.917 44.1481 162.133 41.6477 168.054C40.586 170.569 39.1725 173.009 37.836 175.396C36.3617 178.028 35.6593 181.082 34.0242 183.631C29.2421 191.085 25.558 200.706 24.3066 209.466C23.4367 215.555 19.6243 221.443 19.6243 227.678" stroke="white" stroke-width="2" stroke-linecap="round" stroke-linejoin="round"/>
<path d="M77.2241 100.196C73.6694 103.646 69.0983 105.077 64.9182 107.608C58.4831 111.502 52.068 115.571 45.883 119.866C41.9925 122.568 37.2461 124.378 34.683 128.572C33.1714 131.046 31.609 133.518 30.4478 136.172C29.425 138.51 29.4 141.275 28.6125 143.725C27.8456 146.111 26.968 148.503 26.8242 151.019C26.7066 153.078 25.5537 154.972 25.5537 157.043C25.5537 158.484 25.7454 159.953 25.1301 161.184" stroke="white" stroke-width="2" stroke-linecap="round" stroke-linejoin="round"/>
<path d="M93.3181 93.8429C89.7448 92.4485 85.3743 92.7023 81.8828 94.1723C79.7667 95.0633 75.7919 94.2665 73.5064 94.2665C70.0771 94.2665 66.6753 93.8429 63.2241 93.8429C54.6416 93.8429 47.4012 99.3876 40.4712 104.008C35.672 107.207 33.8069 111.699 30.4006 116.078C28.4838 118.543 28.468 121.803 27.2477 124.549C26.2978 126.686 24.7065 128.848 24.7065 131.113" stroke="white" stroke-width="2" stroke-linecap="round" stroke-linejoin="round"/>
<path d="M84.0006 85.7959C80.3806 82.3828 73.9797 83.7269 69.3889 84.5253C63.9974 85.463 59.3137 88.5555 54.2595 90.3606C51.2864 91.4224 48.2781 93.1931 45.2478 93.8665C43.1894 94.3239 42.0248 96.1328 40.3772 97.2312" stroke="white" stroke-width="2" stroke-linecap="round" stroke-linejoin="round"/>
<path d="M89.0828 76.9018C84.3391 74.125 79.284 73.9371 73.8358 73.9371C71.6554 73.9371 69.475 73.9371 67.2946 73.9371C65.8763 73.9371 64.6767 74.7048 63.2476 74.7842C61.0964 74.9037 57.337 77.3149 55.4123 78.3842C53.1285 79.653 50.663 80.4916 48.4241 81.9842" stroke="white" stroke-width="2" stroke-linecap="round" stroke-linejoin="round"/>
<path d="M91.6241 77.7489C88.7205 73.7564 89.4527 67.8504 91.7182 63.7724C92.6384 62.1161 94.0591 60.8318 94.9182 59.1136C95.6034 57.7432 96.4974 55.8531 97.4594 54.7842C98.9265 53.1541 101.124 48.5785 101.365 46.4078C101.49 45.2851 102.759 42.9871 103.483 42.1725C104.417 41.1213 104.579 39.7711 105.812 38.7843C107.734 37.2471 109.326 35.1281 110.471 33.0667C112.152 30.0417 114.502 27.5249 116.189 24.5726C117.535 22.217 120.05 21.1454 121.695 19.0902C123.127 17.2991 125.967 15.6833 128.048 14.6432" stroke="white" stroke-width="2" stroke-linecap="round" stroke-linejoin="round"/>
<path d="M205.692 270.534C206.867 267.714 207.047 265.208 209.418 263.041C211.401 261.228 213.88 260.324 215.826 258.545" stroke="white" stroke-linecap="round" stroke-linejoin="round"/>
<path d="M215.528 266.719C216.565 265.512 217.462 264.193 218.806 263.238C219.906 262.456 221.232 262.049 222.217 261.149C223.19 260.26 224.45 259.397 225.065 258.273" stroke="white" stroke-linecap="round" stroke-linejoin="round"/>
<path d="M220.25 268C221.609 265.054 223.66 263.232 226.583 261.295C227.72 260.542 229.612 259.27 230.095 258" stroke="white" stroke-linecap="round" stroke-linejoin="round"/>
<path d="M225.661 266.174C227.375 264.608 229.129 263.052 230.728 261.391C232.138 259.926 233.717 258.81 235.199 257.455" stroke="white" stroke-linecap="round" stroke-linejoin="round"/>
<path d="M231.92 265.902C232.694 262.277 236.848 257.455 241.16 257.455" stroke="white" stroke-linecap="round" stroke-linejoin="round"/>
<path d="M235.795 265.084C237.644 263.046 239.766 260.885 242.054 259.241C243.523 258.186 245.359 258.273 247.121 258.273" stroke="white" stroke-linecap="round" stroke-linejoin="round"/>
<path d="M242.65 264.812C243.618 260.783 248.391 259.685 252.188 258.818" stroke="white" stroke-linecap="round" stroke-linejoin="round"/>
<path d="M246.503 266C247.539 263.207 250.029 262.282 252.422 261.107C253.779 260.441 255.29 260.373 256.737 260.086C257.313 259.972 258.05 259.918 258.536 260.272" stroke="white" stroke-linecap="round" stroke-linejoin="round"/>
<path d="M251.972 266C254.708 262.525 258.783 262 262.911 262" stroke="white" stroke-linecap="round" stroke-linejoin="round"/>
<path d="M258.536 267C261.935 264.631 266.79 265.024 270.569 265.024" stroke="white" stroke-linecap="round" stroke-linejoin="round"/>
<path d="M265.141 268.542C268.431 268.112 271.58 266.73 275 267.99" stroke="white" stroke-linecap="round" stroke-linejoin="round"/>
<path d="M256.062 265.902C259.372 264.721 261.817 263.5 266.196 263.45" stroke="white" stroke-linecap="round" stroke-linejoin="round"/>
<path d="M261.817 268C262.496 267.641 262.548 266.778 267.287 266.5C269.222 266.387 270.817 266.5 272.209 266.5" stroke="white" stroke-linecap="round" stroke-linejoin="round"/>
<path d="M212.347 267.661C213.174 265.723 216.444 262.479 218.062 261C219.156 260 221.343 258.5 222.437 258.5" stroke="white" stroke-linecap="round" stroke-linejoin="round"/>
<path d="M208.348 269.946C209.375 267.539 210.321 264.615 212.592 263C213.501 262.354 214.233 261.5 215.327 261C215.97 260.244 217.722 258.905 218.609 258.5" stroke="white" stroke-linecap="round" stroke-linejoin="round"/>
<path d="M150.426 263.284C149.969 260.029 150.442 257.355 148.6 254.481C147.059 252.077 144.777 250.5 143.265 248.142" stroke="white" stroke-linecap="round" stroke-linejoin="round"/>
<path d="M141.429 256.79C140.69 255.261 140.124 253.651 139.009 252.308C138.096 251.209 136.854 250.447 136.089 249.253C135.333 248.073 134.278 246.85 133.948 245.514" stroke="white" stroke-linecap="round" stroke-linejoin="round"/>
<path d="M136.296 256.937C135.686 253.503 134.079 251.072 131.615 248.3C130.657 247.222 129.067 245.408 128.909 243.953" stroke="white" stroke-linecap="round" stroke-linejoin="round"/>
<path d="M131.275 253.65C129.944 251.573 128.568 249.497 127.378 247.349C126.328 245.456 125.016 243.885 123.865 242.088" stroke="white" stroke-linecap="round" stroke-linejoin="round"/>
<path d="M124.986 251.778C125.148 247.78 122.189 241.67 117.808 240.577" stroke="white" stroke-linecap="round" stroke-linejoin="round"/>
<path d="M121.263 249.939C119.917 247.332 118.327 244.528 116.432 242.224C115.215 240.745 113.327 240.371 111.537 239.924" stroke="white" stroke-linecap="round" stroke-linejoin="round"/>
<path d="M114.369 247.915C114.44 243.445 109.877 241.084 106.245 239.211" stroke="white" stroke-linecap="round" stroke-linejoin="round"/>
<path d="M110.143 248.185C109.82 244.993 107.532 243.391 105.408 241.553C104.204 240.51 102.686 240.056 101.291 239.388C100.736 239.123 100.001 238.88 99.4145 239.127" stroke="white" stroke-linecap="round" stroke-linejoin="round"/>
<path d="M104.585 246.799C102.714 242.46 98.7108 240.877 94.5163 239.831" stroke="white" stroke-linecap="round" stroke-linejoin="round"/>
<path d="M97.6542 246.184C94.8199 242.837 89.7837 242.02 85.9443 241.062" stroke="white" stroke-linecap="round" stroke-linejoin="round"/>
<path d="M90.5389 246.126C87.3082 244.842 84.4705 242.594 80.6656 243.049" stroke="white" stroke-linecap="round" stroke-linejoin="round"/>
<path d="M100.455 245.659C97.4012 243.582 95.2355 241.681 90.7996 240.519" stroke="white" stroke-linecap="round" stroke-linejoin="round"/>
<path d="M94.058 246.401C93.4624 245.852 93.6351 244.934 88.8928 243.441C86.9563 242.832 85.3062 242.547 83.8909 242.194" stroke="white" stroke-linecap="round" stroke-linejoin="round"/>
<path d="M144.415 258.585C144.081 256.343 141.608 252.111 140.351 250.15C139.501 248.824 137.67 246.696 136.559 246.419" stroke="white" stroke-linecap="round" stroke-linejoin="round"/>
<path d="M147.881 261.995C147.466 259.21 147.27 255.903 145.385 253.634C144.631 252.726 144.11 251.645 143.129 250.843C142.674 249.887 141.244 248.039 140.449 247.389" stroke="white" stroke-linecap="round" stroke-linejoin="round"/>
<path d="M134 444.744C150.5 443.244 160.5 443.744 175 448.744" stroke="white"/>
<path d="M40.4999 273.5L30.8513 249.781C29.2856 245.931 27.4918 242.171 25.1392 238.746C21.3322 233.203 15.0653 225.348 10.4999 226C5.99987 227.5 1.30952 235 1.99987 249.5C2.49987 260 9.92683 273.75 13.4999 286C19.2683 305.777 22.3204 309.597 28.2521 322.08C31.176 328.233 27.5542 334.142 29.9997 340.5V340.5C32.4078 345.008 32.9999 347 37.9999 348.5C42.9999 350 45.9999 345 45.9999 345" stroke="white" stroke-width="2"/>
<path d="M19 264.5C24.5 274 29.5 286.5 31 302" stroke="white"/>
</svg>
