<svg width="620" height="600" viewBox="0 0 925 884" fill="none" xmlns="http://www.w3.org/2000/svg">
<path d="M509 492C500 492 488 489.882 478.5 486C466.901 481.26 456.663 473.973 449.045 467.653C443.898 463.383 439.546 458.237 435.973 452.584C424.237 434.015 418.447 419.806 410.871 400.163C409.291 396.065 408.008 391.849 407.077 387.556C402.627 367.03 400.729 354.247 398 331.5C394.996 306.466 393.5 302 393.5 277C393.628 258.521 401.5 220 401.5 220C401.5 220 409.5 180.5 431 158C454 138 469 132 495.5 132C521.5 135 527.031 141.941 543.5 144C571.5 147.5 573.5 141.5 593.5 144C604.827 144.666 615.87 146.74 625.931 150.832C641.89 157.323 650.311 173.883 653.605 190.794C660.985 228.685 661.616 253.975 660.351 286.305C660.138 291.757 659.388 297.191 658.117 302.497C649.987 336.448 646.311 343.671 637 373C627.384 396.903 623.5 405.5 606.5 430.5C589.5 455.5 584.5 458.5 570 470.5C547.804 486 544 490 509 492Z" stroke="white" stroke-width="3"/>
<path d="M550.823 408.628C536.758 402.695 531.156 403.557 521.952 405.323C518.165 406.05 514.211 406.126 510.6 404.772C503.514 402.114 502.991 399.26 485.306 400.635C474.269 402.938 462 400 462 400C462 400 469.713 405.178 478.445 409.966C480.426 411.053 482.303 412.334 484.067 413.746C492.651 420.613 497.751 421.999 507.154 421.045C511.321 420.622 515.539 420.786 519.575 421.91C528.173 424.306 532.913 425.254 541.043 421.388C544.551 419.72 548.2 418.323 551.977 417.416C562.83 414.81 572 410.316 572 410.316C572 410.316 558.353 410.419 551.135 408.731C551.029 408.706 550.924 408.671 550.823 408.628Z" stroke="white" stroke-width="2"/>
<path d="M466 402C477.859 404.347 482.095 406.347 493.698 408.285C503.106 409.856 506.568 412.011 514.08 412.475C520.205 412.852 523.623 412.439 529.759 412.475C536.725 412.515 538.994 412.97 545.96 412.998C554.367 413.033 561.758 412.566 570 410.903" stroke="white"/>
<path d="M542 287C540.5 302.5 540.5 307 542 320C542.695 326.022 542.636 327.795 545.5 338.5C546.873 342.894 551.113 349.249 554.821 354.748C559.095 361.087 556.658 362.816 549.5 365.5V365.5C545.5 367 543.225 366.789 539 368.5C534.329 370.392 534 371 530 374C526.931 376.302 524.328 378.241 520.5 378C515.967 377.715 514.095 376.776 510.5 374C507.214 371.463 507.246 369.088 504 366.5C498.3 361.954 495.5 361.5 490.5 359.5V359.5C483.087 356.535 483.054 351.483 489.132 346.305C492.289 343.616 494.979 340.887 496.5 338.5C502.748 328.696 504.5 327.5 509.5 317C514 307.55 513.5 301 516.5 283" stroke="white" stroke-width="2"/>
<path d="M404 269C404 269 403.827 269.937 403.573 271.397C402.811 275.784 402.452 280.241 402.602 284.691C402.94 294.719 404.195 302.29 407.455 309.887C409.248 314.067 411.833 317.872 414.924 321.207C424.483 331.518 434.5 336.162 449.5 337.5C467.961 339.146 483 333 494.5 321C507.5 308.5 511.124 297.877 513.5 280M404 269C404 269 404.817 266.5 406.5 263.5M404 269L395.5 268L388.5 261L384.5 237L390 256L396 261.5L406.5 263.5M513.5 280C522.5 278 540.5 281 546.5 285M513.5 280C514.096 275.513 511.653 271.563 509.593 269.113C508.012 267.232 506.147 265.593 504.109 264.22C493.392 256.998 470.828 252.141 449.5 248.5M546.5 285C544.5 302 544.658 313.464 553.5 328C562.348 342.547 571.929 350.088 588.5 354C606 356.5 617.5 355 630.5 347C644.153 337.89 650.238 326.757 652.5 310.5C653.254 305.085 653.5 301 653.5 301M546.5 285C552 274 557 271.5 564.5 269.5C571.5 267.633 585.5 266.628 602.5 268M653.5 301H664L668.5 298L674 270.5L667.5 293.5L664.5 295.5H653.042M653.5 301C653.5 301 653.6 298.707 653.042 295.5M602.5 268C616.168 270.071 625.719 270.769 638.259 277.201C643.899 280.094 649.301 284.077 651.552 290.003C652.293 291.952 652.755 293.847 653.042 295.5M602.5 268C574.187 265.657 559.111 265.819 531.5 262.5C499.246 258.622 484 255.5 449.5 248.5M449.5 248.5C439.511 248.5 432.371 248.856 427.039 249.511C418.835 250.518 411.896 255.374 407.324 262.26C407.053 262.668 406.779 263.082 406.5 263.5" stroke="white" stroke-width="2"/>
<path d="M677 305C668.698 307.638 663.163 319.319 660 331" stroke="white"/>
<path d="M640.5 364.5C640.5 364.5 642.571 374.5 648 374.5C648.661 374.5 649.323 374.486 649.982 374.441C657.533 373.921 660.521 365.347 661.338 357.823C661.481 356.502 661.788 354.995 662.5 353C668.5 342.5 676.099 333.868 683.5 321.5C689.185 312 695 302.5 699 288.5C700.31 281.948 700.858 273.869 698.975 264.93C698.439 262.389 696.609 260.19 694.046 260.613C690.664 261.17 686.463 263.241 683.541 264.875C681.136 266.22 678.876 267.859 677.409 270.191C673.005 277.189 667.731 291.937 659 301.5" stroke="white" stroke-width="2"/>
<path d="M678.5 284.5C678.5 284.5 682.5 275.5 689.5 274C700.141 271.72 686.5 300.5 686.5 300.5" stroke="white"/>
<path d="M654 344.5C666 341 668 330.5 668 330.5" stroke="white"/>
<path d="M456 100.5C456 100.5 459.361 54.7755 479.5 38.5C493.86 26.8947 506.176 26.2615 524.5 24C540.991 21.9648 550.637 23.1147 567 26C586.277 29.399 596.964 33.304 614.5 42C632.744 51.0471 657.5 71.5 657.5 71.5M467 113.5C467 113.5 467.289 79.4995 479.5 63.5C488.053 52.2931 495.72 47.9519 508.5 42C525.204 34.2208 536.598 33.0598 555 34C573.643 34.9526 582.597 38.246 600 45C619.458 52.5515 631.067 60.0232 648.5 71.5" stroke="white" stroke-width="2"/>
<path d="M480.776 114.356C481.998 110.115 483.148 105.871 484.166 101.572C485.33 96.6568 485.562 91.1895 488.353 86.8387C491.763 81.5235 496.306 75.6837 502.09 72.792C508.31 69.682 514.937 67.6794 520.967 64.1955C523.968 62.4614 527.768 61.8445 531.025 60.7171C534.894 59.3779 538.693 57.7825 542.591 56.5296C549.761 54.2249 558.092 53.8687 565.544 53.029C569.708 52.5598 574.072 52.8177 578.261 52.5638C582.467 52.3089 586.431 52.0987 590.624 52.6302C599.316 53.7319 607.473 56.8697 615.838 59.3213C626.493 62.4444 637.728 64.6757 648.672 66.4997" stroke="white" stroke-width="2" stroke-linejoin="round"/>
<path d="M501.115 114.755C504.958 107.973 508.203 100.29 513.079 94.1944C515.338 91.3717 518.314 89.0226 521.033 86.6615C523.737 84.3133 526.2 81.6606 529.054 79.483C533.915 75.7729 538.967 74.5295 544.585 72.3932C549.562 70.5003 553.941 67.6583 559.163 66.3225C564.701 64.9059 570.477 64.434 576.068 63.1099C582.501 61.5864 588.937 60.954 595.543 60.6063C605.666 60.0735 615.957 60.1189 626.096 60.1189C631.281 60.1189 636.405 61.7141 641.494 61.7141" stroke="white" stroke-width="2" stroke-linejoin="round"/>
<path d="M532.621 112.761C535.669 107.448 538.419 102.194 540.907 96.5872C543.392 90.9865 546.429 85.638 551.187 81.6542C555.074 78.4005 559.289 75.861 563.506 73.08C571.644 67.7121 581.014 65.26 590.757 64.5943C596.625 64.1934 602.601 64.5057 608.482 64.5057C613.81 64.5057 619.034 63.8962 624.345 63.7302C629.606 63.5658 634.856 63.6431 640.076 64.2841C643.434 64.6965 646.884 65.3033 650.268 65.3033" stroke="white" stroke-width="2" stroke-linejoin="round"/>
<path d="M559.341 114.356C560.936 108.087 563.864 102.152 566.608 96.3213C568.662 91.9557 570.831 87.8453 573.698 83.9584C579.172 76.5343 588.272 71.4899 597.271 69.7787C608.123 67.7152 619.731 68.0948 630.726 68.0948C639.706 68.0948 649.514 68.9938 658.244 66.4996" stroke="white" stroke-width="2" stroke-linejoin="round"/>
<path d="M576.09 125.523C581.374 114.329 588.165 103.205 597.714 95.1249C606.027 88.0915 617.256 84.4475 627.558 81.2775C632.188 79.8528 637.238 78.9003 642.07 78.5524C647.207 78.1826 651.908 79.3188 656.87 80.4578C662.654 81.7851 669.013 83.6482 674.994 83.6482" stroke="white" stroke-width="2" stroke-linejoin="round"/>
<path d="M584.066 131.903C588.985 125.411 596.974 121.667 603.918 117.857C608.237 115.487 612.857 113.579 617.566 112.141C621.392 110.972 624.918 108.849 628.732 107.776C635.331 105.92 641.683 103.091 648.495 102.082C653.778 101.299 658.877 100.797 664.226 100.797C668.214 100.797 672.202 100.797 676.19 100.797C678.61 100.797 680.948 101.826 683.28 102.303C685.307 102.718 687.079 102.962 688.952 103.899C690.034 104.439 691.672 105.249 692.763 105.56C693.902 105.886 694.479 106.709 695.532 107.178C698.147 108.34 699.095 111.888 701.713 112.761" stroke="white" stroke-width="2" stroke-linejoin="round"/>
<path d="M600.816 131.106C607.447 127.889 614.072 125.113 621.155 123.13C624.955 122.066 628.821 121.26 632.632 120.25C639.872 118.328 647.271 117.501 654.566 115.951C659.469 114.909 664.423 114.312 669.41 115.065C672.642 115.553 676.069 116.519 679.292 116.749C682.122 116.951 684.78 118.743 687.755 118.743C689.65 118.743 691.454 119.441 693.338 119.541C694.696 119.612 696.543 120.057 697.725 120.648C698.379 120.975 701.831 122.074 700.517 122.731" stroke="white" stroke-width="2" stroke-linejoin="round"/>
<path d="M614.774 138.683C629.805 129.999 650.869 132.104 666.796 136.778C671.589 138.184 676.55 139.538 680.976 141.874C684.456 143.71 687.377 146.559 690.946 148.343C692.914 149.327 693.263 150.169 695 151.5C697.466 153.389 697.312 153.947 700 155.5C701.226 156.208 703.674 159.739 704.416 161C705.493 162.83 705.798 166.972 706.5 169C706.915 170.199 708.006 194.742 708.006 196" stroke="white" stroke-width="2" stroke-linejoin="round"/>
<path d="M621.953 138.683C630.728 139.834 639.515 140.79 648.318 141.696C656.182 142.506 665.203 143.967 672.202 147.856C674.72 149.255 675.927 152.919 677.807 155.034C680.579 158.153 682.983 161.567 685.362 165.004C688.281 169.22 694.159 172.174 695.643 177.367C696.446 180.178 697.055 183.932 698.722 186.34C699.661 187.696 700.587 189.471 701.315 190.926" stroke="white" stroke-width="2" stroke-linejoin="round"/>
<path d="M625.941 145.862C638.575 153.232 652.207 158.338 664.314 166.688C668.995 169.916 673.936 173.246 676.899 178.253C678.94 181.702 680.704 185.412 682.593 188.955C684.092 191.766 686.918 193.683 688.331 196.51C689.296 198.439 690.043 200.624 690.724 202.669C691.742 205.722 692.375 209.82 694.136 212.462" stroke="white" stroke-width="2" stroke-linejoin="round"/>
<path d="M661.434 192.123C664.352 197.822 667.701 201.943 673.177 205.261C674.694 206.181 676.239 207.153 677.94 207.676C678.482 207.843 679.159 208.03 679.38 208.474" stroke="white" stroke-width="2" stroke-linejoin="round"/>
<path d="M658.643 204.486C663.024 208.953 667.089 213.394 671.847 217.491C675.36 220.516 679.292 223.141 682.571 226.42" stroke="white" stroke-width="2" stroke-linejoin="round"/>
<path d="M667.018 226.819C668.427 233.709 673.207 239.719 678.982 243.568" stroke="white" stroke-width="2" stroke-linejoin="round"/>
<path d="M666.22 243.568C667.886 246.902 669.726 249.897 671.714 253.051C672.595 254.449 674.383 256.33 676.19 256.33" stroke="white" stroke-width="2" stroke-linejoin="round"/>
<path d="M371.217 228.308C371.217 221.687 372.05 215.542 372.612 209.076C373.036 204.199 372.278 199.08 372.278 194.362C372.278 192.167 371.906 189.604 372.298 187.448C373.032 183.411 374.581 179.34 375.087 175.288C375.472 172.213 376.898 169.125 377.661 166.074C378.511 162.673 378.289 158.984 378.289 155.466C378.289 148.288 377.228 141.154 377.228 134.054C377.228 128.344 379.295 122.833 381.825 117.631C382.944 115.332 383.951 112.991 385.165 110.736C386.233 108.751 386.581 106.1 388.17 104.41C391.006 101.398 392.479 97.0764 395.439 94.1167C396.567 92.989 397.117 90.7796 397.914 89.3627C398.92 87.5742 399.89 85.9552 400.743 84.0587C402.626 79.8747 406.152 76.4005 409.249 73.0971C410.886 71.3508 413.806 69.9916 415.85 68.7557C417.997 67.4574 420.015 65.8382 422.489 65.2197C424.146 64.8056 425.528 64.0765 427.165 63.6088C428.947 63.0996 430.88 63.3623 432.665 62.7445C435.449 61.7808 437.953 60.4132 440.346 58.7566C442.355 57.3658 443.877 56.1812 445.473 54.3563C446.766 52.8796 449.252 52.1123 450.07 50.2702C450.884 48.4403 452.408 46.3814 453.803 44.9466C455.639 43.0579 456.544 40.571 457.928 38.346C460.832 33.6787 464.7 29.3716 468.104 25.0663C470.717 21.7617 474.113 19.3059 477.494 16.9925C479.69 15.4902 482.007 13.7419 484.428 12.6117C486.542 11.6252 489.186 11.7668 491.265 10.6473C494.603 8.84963 498.915 8.85821 502.403 7.30774C505.74 5.82467 509.359 5.05937 512.658 3.49671C517.736 1.09123 522.731 1.65013 528.039 1.65013C534.07 1.65013 539.643 3.90925 545.385 5.46116C549.943 6.69286 555.061 9.73736 558.468 12.9653C560.173 14.5804 562.03 16.5131 563.497 18.3479C564.009 18.9872 564.983 20.0229 565.344 20.7446" stroke="white" stroke-width="2" stroke-linejoin="round"/>
<path d="M545.896 4.83252C556.713 4.83252 567.416 5.94901 577.347 10.2937C584.147 13.2687 591.615 14.92 598.602 17.3657C601.352 18.3281 604.24 18.5051 606.892 19.6837C608.289 20.3044 609.237 22.1418 610.605 22.8662C611.878 23.5399 613.192 24.2174 614.416 24.9878C616.358 26.2105 618.531 26.8718 620.525 27.9934C622.343 29.016 624.304 29.7156 626.163 30.6454C627.409 31.2679 629.369 31.8934 630.407 32.767C631.74 33.8901 633.895 34.1759 635.436 35.2422C637.244 36.4944 638.684 38.2122 640.641 39.2889C641.85 39.9538 643.151 40.7408 644.02 41.8034C648.283 47.0136 651.724 52.6503 655.669 58.0298C656.739 59.4886 657.694 61.03 658.773 62.4694C660.077 64.2077 661.952 65.3731 663.468 66.8894C665.178 68.5996 665.877 69.7364 666.827 71.9381C668.019 74.6967 670.172 78.1905 672.308 80.3263C673.767 81.7848 674.734 85.3404 676.375 86.1607" stroke="white" stroke-width="2" stroke-linejoin="round"/>
<path d="M664.706 82.6248C674.135 87.2467 682.561 93.2398 687.965 102.426C688.336 103.057 689.185 103.183 689.812 103.487C691.024 104.076 692.123 105.123 693.367 105.589C695.308 106.317 695.911 108.039 697.591 109.066C699.346 110.139 700.71 111.412 702.541 112.327" stroke="white" stroke-width="2" stroke-linejoin="round"/>
<path d="M683.093 103.487C688.404 105.763 692.481 110.733 695.469 115.588C696.341 117.004 697.323 118.493 698.121 119.93C698.896 121.323 700.494 122.377 701.127 123.642" stroke="white" stroke-width="2" stroke-linejoin="round"/>
<path d="M667.888 116.57C670.986 120.659 676.78 123.386 681.502 125.234C683.575 126.045 684.877 127.643 686.629 128.77C690.001 130.937 693.156 133.018 695.626 136.195C696.503 137.322 696.688 139.044 697.768 139.908C698.188 140.244 698.501 141.515 698.73 142.03C699.289 143.286 700.274 144.343 700.95 145.546C702.61 148.497 705.128 151.172 706.097 154.563C707.045 157.882 708.706 161.406 708.906 165.014C709.098 168.476 709.063 172.082 709.26 175.622C709.355 177.335 709.613 179.115 709.613 180.926C709.613 182.688 708.906 184.391 708.906 186.23C708.906 187.718 708.553 189.51 708.553 191.18C708.553 192.987 709.26 194.34 709.26 196.13" stroke="white" stroke-width="2" stroke-linejoin="round"/>
<path d="M702.188 162.185C702.188 167.491 704.735 173.137 702.109 178.097C700.943 180.299 700.773 182.277 700.773 184.815C700.773 187.05 701.834 188.58 701.834 190.826" stroke="white" stroke-width="2" stroke-linejoin="round"/>
<path d="M699.005 186.23C696.709 188.024 695.694 190.789 695.096 193.479C694.573 195.832 695.116 197.854 695.116 200.197C695.116 202.377 695.116 204.558 695.116 206.739C695.116 207.595 694.982 212.463 694.408 212.75" stroke="white" stroke-width="2" stroke-linejoin="round"/>
<path d="M692.64 212.75C693.967 216.233 692.715 220.169 693.682 223.554C694.238 225.5 693.348 227.811 693.348 229.723C693.348 232.524 691.554 235.041 691.246 237.816C691.019 239.857 689.558 242.272 688.574 244.043C687.579 245.835 687.492 247.76 686.708 249.524C686.067 250.966 685.568 253.474 685.568 255.005C685.568 256.538 684.241 257.94 684.154 259.425C684.123 259.958 683.597 261.11 683.427 261.704C683.246 262.34 682.625 263.018 682.032 263.315" stroke="white" stroke-width="2" stroke-linejoin="round"/>
<path d="M467.494 120.949C463.294 122.406 459.017 123.053 454.789 124.337C450.508 125.636 446.38 127.165 442.177 128.666C439.831 129.504 438.221 131.418 436.248 132.808C433.608 134.665 430.389 136.878 428.106 139.16C423.722 143.545 420.433 148.623 416.765 153.56C415.742 154.937 414.406 156.343 413.518 157.796C412.632 159.246 412.498 160.946 411.589 162.36C409.857 165.054 407.82 167.472 405.989 170.078C401.103 177.031 396.634 184.951 394.742 193.278C394.057 196.29 392.104 199.102 391.354 202.172C390.374 206.178 387.781 209.988 387.118 214.031C386.217 219.531 384.907 225.081 384.907 230.642C384.907 234.207 383.212 237.356 383.212 240.807" stroke="white" stroke-width="2" stroke-linejoin="round"/>
<path d="M456.483 117.984C453.16 119.83 449.254 120.24 445.753 121.796C440.379 124.184 435.211 127.527 429.989 130.266C424.955 132.907 419.3 134.821 414.883 138.502C410.502 142.152 406.613 145.703 403.424 150.525C399.859 155.917 397.148 162.133 394.648 168.054C393.586 170.569 392.173 173.009 390.836 175.396C389.362 178.028 388.659 181.082 387.024 183.631C382.242 191.085 378.558 200.706 377.307 209.466C376.437 215.555 372.624 221.443 372.624 227.678" stroke="white" stroke-width="2" stroke-linejoin="round"/>
<path d="M430.224 100.196C426.669 103.646 422.098 105.077 417.918 107.608C411.483 111.502 405.068 115.571 398.883 119.866C394.992 122.568 390.246 124.378 387.683 128.572C386.171 131.046 384.609 133.518 383.448 136.172C382.425 138.51 382.4 141.275 381.612 143.725C380.846 146.111 379.968 148.503 379.824 151.019C379.707 153.078 378.554 154.972 378.554 157.043C378.554 158.484 378.745 159.953 378.13 161.184" stroke="white" stroke-width="2" stroke-linejoin="round"/>
<path d="M446.318 93.8429C442.745 92.4485 438.374 92.7023 434.883 94.1723C432.767 95.0633 428.792 94.2665 426.506 94.2665C423.077 94.2665 419.675 93.8429 416.224 93.8429C407.642 93.8429 400.401 99.3876 393.471 104.008C388.672 107.207 386.807 111.699 383.401 116.078C381.484 118.543 381.468 121.803 380.248 124.549C379.298 126.686 377.707 128.848 377.707 131.113" stroke="white" stroke-width="2" stroke-linejoin="round"/>
<path d="M437.001 85.7959C433.381 82.3828 426.98 83.7269 422.389 84.5253C416.997 85.463 412.314 88.5555 407.26 90.3606C404.286 91.4224 401.278 93.1931 398.248 93.8665C396.189 94.3239 395.025 96.1328 393.377 97.2312" stroke="white" stroke-width="2" stroke-linejoin="round"/>
<path d="M442.083 76.9018C437.339 74.125 432.284 73.9371 426.836 73.9371C424.655 73.9371 422.475 73.9371 420.295 73.9371C418.876 73.9371 417.677 74.7048 416.248 74.7842C414.096 74.9037 410.337 77.3149 408.412 78.3842C406.128 79.653 403.663 80.4916 401.424 81.9842" stroke="white" stroke-width="2" stroke-linejoin="round"/>
<path d="M444.624 77.7489C441.72 73.7564 442.453 67.8504 444.718 63.7724C445.638 62.1161 447.059 60.8318 447.918 59.1136C448.603 57.7432 449.497 55.8531 450.459 54.7842C451.926 53.1541 454.124 48.5785 454.365 46.4078C454.49 45.2851 455.759 42.9871 456.483 42.1725C457.417 41.1213 457.579 39.7711 458.812 38.7843C460.734 37.2471 462.326 35.1281 463.471 33.0667C465.152 30.0417 467.502 27.5249 469.189 24.5726C470.535 22.217 473.05 21.1454 474.695 19.0902C476.127 17.2991 478.967 15.6833 481.048 14.6432" stroke="white" stroke-width="2" stroke-linejoin="round"/>
<path d="M558.692 270.534C559.867 267.714 560.047 265.208 562.418 263.041C564.401 261.228 566.88 260.324 568.826 258.545" stroke="white" stroke-linejoin="round"/>
<path d="M568.528 266.719C569.565 265.512 570.462 264.193 571.806 263.238C572.906 262.456 574.232 262.049 575.217 261.149C576.19 260.26 577.45 259.397 578.065 258.273" stroke="white" stroke-linejoin="round"/>
<path d="M573.25 268C574.609 265.054 576.66 263.232 579.583 261.295C580.72 260.542 582.612 259.27 583.095 258" stroke="white" stroke-linejoin="round"/>
<path d="M578.661 266.174C580.375 264.608 582.129 263.052 583.728 261.391C585.138 259.926 586.717 258.81 588.199 257.455" stroke="white" stroke-linejoin="round"/>
<path d="M584.92 265.902C585.694 262.277 589.848 257.455 594.16 257.455" stroke="white" stroke-linejoin="round"/>
<path d="M588.795 265.084C590.644 263.046 592.766 260.885 595.054 259.241C596.523 258.186 598.359 258.273 600.121 258.273" stroke="white" stroke-linejoin="round"/>
<path d="M595.65 264.812C596.618 260.783 601.391 259.685 605.188 258.818" stroke="white" stroke-linejoin="round"/>
<path d="M599.503 266C600.539 263.207 603.029 262.282 605.422 261.107C606.779 260.441 608.29 260.373 609.737 260.086C610.313 259.972 611.05 259.918 611.536 260.272" stroke="white" stroke-linejoin="round"/>
<path d="M604.972 266C607.708 262.525 611.783 262 615.911 262" stroke="white" stroke-linejoin="round"/>
<path d="M611.536 267C614.935 264.631 619.79 265.024 623.569 265.024" stroke="white" stroke-linejoin="round"/>
<path d="M618.141 268.542C621.431 268.112 624.58 266.73 628 267.99" stroke="white" stroke-linejoin="round"/>
<path d="M609.062 265.902C612.372 264.721 614.817 263.5 619.196 263.45" stroke="white" stroke-linejoin="round"/>
<path d="M614.817 268C615.496 267.641 615.548 266.778 620.287 266.5C622.222 266.387 623.817 266.5 625.209 266.5" stroke="white" stroke-linejoin="round"/>
<path d="M565.347 267.661C566.174 265.723 569.444 262.479 571.062 261C572.156 260 574.343 258.5 575.437 258.5" stroke="white" stroke-linejoin="round"/>
<path d="M561.348 269.946C562.375 267.539 563.321 264.615 565.592 263C566.501 262.354 567.233 261.5 568.327 261C568.97 260.244 570.722 258.905 571.609 258.5" stroke="white" stroke-linejoin="round"/>
<path d="M503.426 263.284C502.969 260.029 503.442 257.355 501.6 254.481C500.059 252.077 497.777 250.5 496.265 248.142" stroke="white" stroke-linejoin="round"/>
<path d="M494.429 256.79C493.69 255.261 493.124 253.651 492.009 252.308C491.096 251.209 489.854 250.447 489.089 249.253C488.333 248.073 487.278 246.85 486.948 245.514" stroke="white" stroke-linejoin="round"/>
<path d="M489.296 256.937C488.686 253.503 487.079 251.072 484.615 248.3C483.657 247.222 482.067 245.408 481.909 243.953" stroke="white" stroke-linejoin="round"/>
<path d="M484.275 253.65C482.944 251.573 481.568 249.497 480.378 247.349C479.328 245.456 478.016 243.885 476.865 242.088" stroke="white" stroke-linejoin="round"/>
<path d="M477.986 251.778C478.148 247.78 475.189 241.67 470.808 240.577" stroke="white" stroke-linejoin="round"/>
<path d="M474.263 249.939C472.917 247.332 471.327 244.528 469.432 242.224C468.215 240.745 466.327 240.371 464.537 239.924" stroke="white" stroke-linejoin="round"/>
<path d="M467.369 247.915C467.44 243.445 462.877 241.084 459.245 239.211" stroke="white" stroke-linejoin="round"/>
<path d="M463.143 248.185C462.82 244.993 460.532 243.391 458.408 241.553C457.204 240.51 455.686 240.056 454.291 239.388C453.736 239.123 453.001 238.88 452.414 239.127" stroke="white" stroke-linejoin="round"/>
<path d="M457.585 246.799C455.714 242.46 451.711 240.877 447.516 239.831" stroke="white" stroke-linejoin="round"/>
<path d="M450.654 246.184C447.82 242.837 442.784 242.02 438.944 241.062" stroke="white" stroke-linejoin="round"/>
<path d="M443.539 246.126C440.308 244.842 437.471 242.594 433.666 243.049" stroke="white" stroke-linejoin="round"/>
<path d="M453.455 245.659C450.401 243.582 448.235 241.681 443.8 240.519" stroke="white" stroke-linejoin="round"/>
<path d="M447.058 246.401C446.462 245.852 446.635 244.934 441.893 243.441C439.956 242.832 438.306 242.547 436.891 242.194" stroke="white" stroke-linejoin="round"/>
<path d="M497.415 258.585C497.081 256.343 494.608 252.111 493.351 250.15C492.501 248.824 490.67 246.696 489.559 246.419" stroke="white" stroke-linejoin="round"/>
<path d="M500.881 261.995C500.466 259.21 500.27 255.903 498.385 253.634C497.631 252.726 497.11 251.645 496.129 250.843C495.674 249.887 494.244 248.039 493.449 247.389" stroke="white" stroke-linejoin="round"/>
<path d="M490 443.744C506.5 442.244 516.5 442.744 531 447.744" stroke="white"/>
<path d="M393.5 273.5L383.851 249.781C382.286 245.931 380.492 242.171 378.139 238.746C374.332 233.203 368.065 225.348 363.5 226C359 227.5 354.31 235 355 249.5C355.5 260 362.927 273.75 366.5 286C372.268 305.777 375.32 309.597 381.252 322.08C384.176 328.233 380.554 334.142 383 340.5V340.5C385.408 345.008 386 347 391 348.5C396 350 399 345 399 345" stroke="white" stroke-width="2"/>
<path d="M374.5 270.5C374.5 270.5 385.5 282 385.5 297.5" stroke="white"/>
<path d="M373 245C373 245 370.671 241.118 366.697 239.511C365.633 239.081 364.401 239.246 363.533 239.996C356.45 246.125 364 263 364 263" stroke="white"/>
<path d="M376 298C376 298 382 314.5 389.5 314" stroke="white"/>
<path d="M620.5 408.5C620.5 408.5 608.431 459.459 608.384 494.597C608.379 498.471 610.712 504.187 612.788 507.459V507.459C616.507 513.323 619.545 517.097 619.407 524.04C618.788 555.248 614.601 568.059 593 587.5C556.701 620.17 532.342 632.251 489.658 640.933C480.634 642.768 471.325 643.004 462.269 641.334C429.355 635.265 407.623 624.185 379 601.5M404.5 380.5C402.74 412.083 401.344 430.175 396.495 458.37C395.223 465.764 392.964 472.98 389.315 479.535C380.711 494.989 368.5 513 368.5 513" stroke="white" stroke-width="3"/>
<path d="M401 428.5C401 428.5 379.177 444.107 369 455.5C355.079 471.085 347.5 502 347.5 502C347.5 502 268 529.5 212.5 547C174.319 560.475 163.175 565.477 130.128 579.767C122.098 583.24 114.607 587.873 107.752 593.308C93.375 604.704 80.6528 614.297 72 628.5C59.5 656.5 55.1181 674.944 47 705.5C37.0883 742.807 37.8318 765.172 28 802.5C19.5855 834.447 2 883 2 883M612.5 456C612.5 456 632.943 475.915 642 491.5C649.925 505.137 657 529 657 529C657 529 737.044 556.588 785.5 583C828.299 606.329 860.034 618.806 890 658C901.901 673.565 905.397 677.481 912.5 694C918.843 708.75 922.401 720.246 925.5 736" stroke="white" stroke-width="3"/>
<path d="M372 452.5C362.5 463.5 357.944 480.95 360.5 498C362.831 513.551 374.686 518.531 379.5 533.5C385.324 551.608 384 582 384 582C384 582 360.611 613.376 355.5 634.5C348 665.5 346.36 684.861 350 717.5C353.429 748.245 364.43 755.833 368.5 786.5C373.407 823.481 368 848 360.5 883M614 457.5C614 457.5 621.762 465.442 626.5 476.5C634.502 495.174 639.509 511.209 638.5 531.5C636.824 565.2 631.582 593.251 614 622.5C598.887 647.642 578 652.5 561.5 669C559.861 677.434 561.5 691 561.5 691M561.5 691L518.435 743.259C517.523 744.366 517.13 745.812 517.357 747.228L520.549 767.182C520.802 768.761 522.248 769.864 523.837 769.691L546.863 767.179C547.926 767.063 548.924 766.609 549.711 765.883L600 719.5M561.5 691L589.5 664L611.659 639.955C612.521 639.02 613.706 638.449 614.973 638.356L637.995 636.682C639.444 636.577 640.761 637.526 641.12 638.934L646.86 661.484C647.261 663.061 646.87 664.735 645.81 665.971L623.5 692L600 719.5M600 719.5C600 719.5 623.691 732.387 634.5 747C644.38 760.357 649.741 771.708 653 788C660.5 825.5 662.5 851 662.5 883" stroke="white" stroke-width="3"/>
<path d="M347.5 504C347.5 504 330.556 518.5 327 534.5C324 548 323.531 570.086 327 589.5C330.469 608.914 333 618 345 636.5M657.5 529.5C657.5 529.5 670.081 552.145 675 570C680.923 591.5 682.995 621.33 677 643.5C671.005 665.67 661.925 685 648.5 699.5C636.099 712.893 612.5 727.5 612.5 727.5" stroke="white" stroke-width="2"/>
<path d="M326.5 540.5C326.5 540.5 291.532 563.623 268 576.5C242.563 590.419 225.89 593.624 201 608.5C178.067 622.206 164.67 629.891 145.5 648.5C131.974 661.63 124.673 669.63 114.5 685.5C101.853 705.229 99.6676 718.933 90.5 740.5C86.3575 750.245 81.2915 754.99 80 765.5C78.7235 775.888 84.0809 781.534 84 792C83.8652 809.434 74.479 817.743 72 835C70.1102 848.156 72.856 855.92 70.5 869C69.4674 874.733 67 883.5 67 883.5M325 560C325 560 317.791 566.522 313 570.5C295.374 585.134 284.206 591.817 264.5 603.5C247.446 613.611 219.5 627 219.5 627C219.5 627 194.02 641.702 179 653C165.832 662.905 157.488 667.791 147 680.5C140.727 688.102 137.898 692.947 133 701.5C126.182 713.406 123.574 720.753 118.5 733.5C113.909 745.032 112.655 751.993 108 763.5C105.606 769.418 102.903 772.272 101.5 778.5C99.1723 788.83 103.757 794.914 104 805.5C104.324 819.589 104.518 827.734 101.5 841.5C99.7935 849.283 96.7426 853.13 95.5 861C94.1296 869.679 95.5 883.5 95.5 883.5" stroke="white"/>
<path d="M311.5 518.5C310 530.5 310 535.5 310 547M285 527C284 541.5 284 548.5 285 562M262.5 535.5C261.5 551.5 261.5 558.5 262.5 574.5M237 544.5C236 561 236 569 237 586M214 550.5C214 568.5 214 577 216 594M188.5 560.5C188.5 581 188.5 593 191.5 610M166 570C166 591.5 166.5 607 169.5 624M142.5 579.5C142.5 605.5 143 621.5 146 643.5M118.5 590.5C119.5 616.5 122.5 639 127.5 662M96.5 607.5C95.4999 641.5 108 690 123 722M87.5 614C89.5 663.5 98 685.5 116 733.5" stroke="white"/>
<path d="M347.5 504C347.5 504 330.556 518.5 327 534.5C324 548 323.531 570.086 327 589.5C330.469 608.914 333 618 345 636.5M657.5 529.5C657.5 529.5 670.081 552.145 675 570C680.923 591.5 682.995 621.33 677 643.5C671.005 665.67 661.925 685 648.5 699.5C636.099 712.893 612.5 727.5 612.5 727.5" stroke="#0A0A0A" stroke-width="2" stroke-dasharray="8 6"/>
<path d="M326.5 540.5C326.5 540.5 291.532 563.623 268 576.5C242.563 590.419 225.89 593.624 201 608.5C178.067 622.206 164.67 629.891 145.5 648.5C131.974 661.63 124.673 669.63 114.5 685.5C101.853 705.229 99.6676 718.933 90.5 740.5C86.3575 750.245 81.2915 754.99 80 765.5C78.7235 775.888 84.0809 781.534 84 792C83.8652 809.434 74.479 817.743 72 835C70.1102 848.156 72.856 855.92 70.5 869C69.4674 874.733 67 883.5 67 883.5M325 560C325 560 317.791 566.522 313 570.5C295.374 585.134 284.206 591.817 264.5 603.5C247.446 613.611 219.5 627 219.5 627C219.5 627 194.02 641.702 179 653C165.832 662.905 157.488 667.791 147 680.5C140.727 688.102 137.898 692.947 133 701.5C126.182 713.406 123.574 720.753 118.5 733.5C113.909 745.032 112.655 751.993 108 763.5C105.606 769.418 102.903 772.272 101.5 778.5C99.1723 788.83 103.757 794.914 104 805.5C104.324 819.589 104.518 827.734 101.5 841.5C99.7935 849.283 96.7426 853.13 95.5 861C94.1296 869.679 95.5 883.5 95.5 883.5" stroke="#0A0A0A" stroke-dasharray="6 5"/>
<path d="M311.5 518.5C310 530.5 310 535.5 310 547M285 527C284 541.5 284 548.5 285 562M262.5 535.5C261.5 551.5 261.5 558.5 262.5 574.5M237 544.5C236 561 236 569 237 586M214 550.5C214 568.5 214 577 216 594M188.5 560.5C188.5 581 188.5 593 191.5 610M166 570C166 591.5 166.5 607 169.5 624M142.5 579.5C142.5 605.5 143 621.5 146 643.5M118.5 590.5C119.5 616.5 122.5 639 127.5 662M96.5 607.5C95.4999 641.5 108 690 123 722M87.5 614C89.5 663.5 98 685.5 116 733.5" stroke="#0A0A0A" stroke-dasharray="6 3"/>
<path d="M679 582C679 582 721.141 604.374 746 622C762.444 633.659 772.318 639.676 786.5 654C800.899 668.543 818.5 695.5 818.5 695.5C818.5 695.5 835.41 721.171 843.5 738.5C851.075 754.726 852.242 764.376 859 780.5C865.078 795.002 871.656 801.887 876 817C879.547 829.342 878.651 836.875 881 849.5C883.487 862.868 888.5 883.5 888.5 883.5M682 604C682 604 687.914 614.708 693.5 620C700.234 626.38 706.153 627.053 714 632C731.014 642.726 739.768 649.968 755.5 662.5C765.258 670.273 771.486 674.041 779 684C785.048 692.017 786.426 697.521 791.5 706C801.845 723.287 820 749 820 749C820 749 828.628 761.788 832.5 770.5C838.5 784 836.253 786.448 841 800.5C845.966 815.203 853.712 825.289 857.5 842.5C860.951 858.179 860.5 883.5 860.5 883.5" stroke="white"/>
<path d="M688.5 545.5C689.5 559 690.5 571 690.5 584.5M715.5 555.5C717 572.5 717 599.5 717 599.5M739 565C741.5 585 741 613 741 613M763 575.5C765.5 601.5 762.5 629 762.5 629M786 588C787 617 782.5 646.5 782.5 646.5M810 600.5C808.5 635 800.5 666 800.5 666M832 613C826.5 653.5 816.5 687 816.5 687M854 628C845.5 671 832 710 832 710M876 648C862.5 697 846 735.5 846 735.5M898.5 674C875 726.5 867.5 746 839.5 788M905.5 685C884 733.5 873 758 844.5 803" stroke="white"/>
<path d="M679 582C679 582 721.141 604.374 746 622C762.444 633.659 772.318 639.676 786.5 654C800.899 668.543 818.5 695.5 818.5 695.5C818.5 695.5 835.41 721.171 843.5 738.5C851.075 754.726 852.242 764.376 859 780.5C865.078 795.002 871.656 801.887 876 817C879.547 829.342 878.651 836.875 881 849.5C883.487 862.868 888.5 883.5 888.5 883.5M682 604C682 604 687.914 614.708 693.5 620C700.234 626.38 706.153 627.053 714 632C731.014 642.726 739.768 649.968 755.5 662.5C765.258 670.273 771.486 674.041 779 684C785.048 692.017 786.426 697.521 791.5 706C801.845 723.287 820 749 820 749C820 749 828.628 761.788 832.5 770.5C838.5 784 836.253 786.448 841 800.5C845.966 815.203 853.712 825.289 857.5 842.5C860.951 858.179 860.5 883.5 860.5 883.5" stroke="black" stroke-dasharray="6 5"/>
<path d="M688.5 545.5C689.5 559 690.5 571 690.5 584.5M715.5 555.5C717 572.5 717 599.5 717 599.5M739 565C741.5 585 741 613 741 613M763 575.5C765.5 601.5 762.5 629 762.5 629M786 588C787 617 782.5 646.5 782.5 646.5M810 600.5C808.5 635 800.5 666 800.5 666M832 613C826.5 653.5 816.5 687 816.5 687M854 628C845.5 671 832 710 832 710M876 648C862.5 697 846 735.5 846 735.5M898.5 674C875 726.5 867.5 746 839.5 788M905.5 685C884 733.5 873 758 844.5 803" stroke="black" stroke-dasharray="6 3"/>
<path d="M596 661L625 686" stroke="white"/>
<path d="M596 661L625 686" stroke="black" stroke-dasharray="3 2"/>
<path d="M611.5 683C611.5 687.646 607.298 691.5 602 691.5C596.702 691.5 592.5 687.646 592.5 683C592.5 678.354 596.702 674.5 602 674.5C607.298 674.5 611.5 678.354 611.5 683Z" stroke="white"/>
<path d="M592.5 701C592.5 705.646 588.298 709.5 583 709.5C577.702 709.5 573.5 705.646 573.5 701C573.5 696.354 577.702 692.5 583 692.5C588.298 692.5 592.5 696.354 592.5 701Z" stroke="white"/>
<path d="M548.5 750C548.5 755.165 543.441 759.5 537 759.5C530.559 759.5 525.5 755.165 525.5 750C525.5 744.835 530.559 740.5 537 740.5C543.441 740.5 548.5 744.835 548.5 750Z" stroke="white"/>
<path d="M542.5 748C542.5 748.905 541.997 749.768 541.095 750.424C540.194 751.079 538.925 751.5 537.5 751.5C536.075 751.5 534.806 751.079 533.905 750.424C533.003 749.768 532.5 748.905 532.5 748C532.5 747.095 533.003 746.232 533.905 745.576C534.806 744.921 536.075 744.5 537.5 744.5C538.925 744.5 540.194 744.921 541.095 745.576C541.997 746.232 542.5 747.095 542.5 748Z" stroke="white"/>
<path d="M588.5 700C588.5 702.442 586.307 704.5 583.5 704.5C580.693 704.5 578.5 702.442 578.5 700C578.5 697.558 580.693 695.5 583.5 695.5C586.307 695.5 588.5 697.558 588.5 700Z" stroke="white"/>
<path d="M608.5 682.5C608.5 685.186 605.895 687.5 602.5 687.5C599.105 687.5 596.5 685.186 596.5 682.5C596.5 679.814 599.105 677.5 602.5 677.5C605.895 677.5 608.5 679.814 608.5 682.5Z" stroke="white"/>
<path d="M532.5 748.5C537.5 744 542.5 748 542.5 748M579 698.5C579 698.5 582.5 705 588.5 700M601.5 677.5C593 680.5 604 689.5 608 684.5" stroke="white"/>
<path d="M300.165 820.392C223.382 817.403 191.645 811.693 128.333 813.419C126.753 813.462 125.456 814.73 125.41 816.311C124.679 841.605 126.347 858.419 128.157 872.397C128.351 873.888 129.634 874.999 131.138 875.006C187.137 875.268 228.6 883.772 295.661 882.064C297.027 882.029 298.215 881.065 298.515 879.732C302.061 864.016 303.848 853.189 303.078 823.309C303.037 821.731 301.742 820.453 300.165 820.392Z" stroke="white"/>
<path d="M134 841C172.525 843.25 211.869 846.25 284 853" stroke="white" stroke-width="4"/>
<path d="M132 845C170.525 847.25 209.869 850.25 282 857" stroke="white" stroke-width="4"/>
<path d="M300.165 820.392C223.382 817.403 191.645 811.693 128.333 813.419C126.753 813.462 125.456 814.73 125.41 816.311C124.679 841.605 126.347 858.419 128.157 872.397C128.351 873.888 129.634 874.999 131.138 875.006C187.137 875.268 228.6 883.772 295.661 882.064C297.027 882.029 298.215 881.065 298.515 879.732C302.061 864.016 303.848 853.189 303.078 823.309C303.037 821.731 301.742 820.453 300.165 820.392Z" stroke="black" stroke-dasharray="4 4"/>
<path d="M134 841C172.525 843.25 211.869 846.25 284 853" stroke="black" stroke-width="4" stroke-dasharray="2 2"/>
<path d="M132 845C170.525 847.25 209.869 850.25 282 857" stroke="black" stroke-width="4" stroke-dasharray="2 2"/>
<path d="M273.5 850.5L273.138 847.969C273.062 847.431 272.568 847.052 272.028 847.118L257.5 848.882L240 850.941L231.954 851.888C231.421 851.95 231.033 852.423 231.074 852.958L231.922 863.98C231.965 864.539 232.46 864.954 233.018 864.898L242 864L259 862L273.895 860.604C274.486 860.548 274.899 859.994 274.782 859.412L274.5 858" stroke="white" stroke-width="2"/>
<path d="M280.039 850.207L267.525 849.041C267.244 849.015 266.965 849.109 266.756 849.3L263.593 852.205C263.247 852.523 263.169 853.04 263.406 853.446L265.658 857.306C265.82 857.585 266.107 857.768 266.429 857.798L278.93 858.962C279.189 858.987 279.447 858.909 279.649 858.746L283.27 855.836C283.681 855.506 283.765 854.915 283.463 854.483L280.765 850.629C280.597 850.389 280.331 850.234 280.039 850.207Z" fill-opacity="0" fill="white"/>
<path d="M237.571 864L238.525 863.898C240.53 863.589 245 862.354 245 857.5C245 851.243 237 851.5 237 851.5L258.747 849.06C259.084 849.012 259.286 849 259.286 849L258.747 849.06C256.942 849.318 251.247 850.601 251.857 856.5C252.457 862.302 261 861.5 261 861.5L238.525 863.898C237.945 863.988 237.571 864 237.571 864Z" fill-opacity="0" fill="white"/>
<path d="M377.5 587C363 607 361.5 608.5 352.5 632C344.5 660 343 682.5 345.5 711.5C348 733 353.5 746.5 362 769.5C366 788 367.5 798.5 367 816.5C366.265 842.945 363 856 358 879.5" stroke="white" stroke-width="8"/>
<path d="M377.5 587C363 607 361.5 608.5 352.5 632C344.5 660 343 682.5 345.5 711.5C348 733 353.5 746.5 362 769.5C366 788 367.5 798.5 367 816.5C366.265 842.945 363 856 358 879.5" stroke="black" stroke-width="8" stroke-dasharray="3 2"/>
<path d="M597 723C616.5 735 622.439 739.611 632.5 752.5C643.141 766.133 646 775 649.5 791.5C653.913 812.302 655.985 824.289 657.5 845.5C658.5 859.5 659.221 868.46 658.5 882.5" stroke="white" stroke-width="8"/>
<path d="M557 672.5C556.5 681 557 684 559 692.5" stroke="white" stroke-width="8"/>
<path d="M597 723C616.5 735 622.439 739.611 632.5 752.5C643.141 766.133 646 775 649.5 791.5C653.913 812.302 655.985 824.289 657.5 845.5C658.5 859.5 659.221 868.46 658.5 882.5" stroke="black" stroke-width="8" stroke-dasharray="3 2"/>
<path d="M557 672.5C556.5 681 557 684 559 692.5" stroke="black" stroke-width="8" stroke-dasharray="3 2"/>
</svg>
