<svg width="925" height="884" viewBox="0 0 925 884" fill="none" xmlns="http://www.w3.org/2000/svg">
<path d="M509 492C500 492 488 489.882 478.5 486C466.901 481.26 456.663 473.973 449.045 467.653C443.898 463.383 439.546 458.237 435.973 452.584C424.237 434.015 418.447 419.806 410.871 400.163C409.291 396.065 408.008 391.849 407.077 387.556C402.627 367.03 400.729 354.247 398 331.5C394.996 306.466 393.5 302 393.5 277C393.628 258.521 401.5 220 401.5 220C401.5 220 409.5 180.5 431 158C454 138 469 132 495.5 132C521.5 135 527.031 141.941 543.5 144C571.5 147.5 573.5 141.5 593.5 144C604.827 144.666 615.87 146.74 625.931 150.832C641.89 157.323 650.311 173.883 653.605 190.794C660.985 228.685 661.616 253.975 660.351 286.305C660.138 291.757 659.388 297.191 658.117 302.497C649.987 336.448 646.311 343.671 637 373C627.384 396.903 623.5 405.5 606.5 430.5C589.5 455.5 584.5 458.5 570 470.5C547.804 486 544 490 509 492Z" stroke="white" stroke-width="3"/>
<path d="M474 401.5C473.368 401.461 472.528 401.343 471.516 401.157C455.717 398.257 454.822 399.476 469.5 406C474 408 472.5 410 476 412.5C477.558 413.902 478.533 414.964 479.349 415.838C483.472 420.25 490.033 421.202 496.057 420.775C498.052 420.633 499.999 420.445 502.5 420.5C506.812 420.594 507.757 420.722 512 421.5C516.802 422.38 518.127 423.71 523 424C529.855 424.408 538.09 419.965 544.5 417.5C551 415 555 414.5 559.5 413.5C565.903 412.077 565.776 410.349 559.23 409.931C556.221 409.739 553.044 409.443 549.5 409C544.044 408.318 543.498 405.767 536 405C527.398 404.121 520.623 406.636 512 406C502.691 405.313 501.315 402.088 492 401.5C485.349 401.08 480.652 401.909 474 401.5Z" stroke="white" stroke-width="2"/>
<path d="M490 410C490 410 493.119 410.687 495.483 410.889C497.522 411.063 497.966 411.275 500 411.5C502.489 411.776 503.779 412.096 506.209 412.667C508.158 413.124 508.745 413.321 510.738 413.556C513.047 413.827 514.847 413.556 517.174 413.556C519.595 413.556 519.76 413.528 522.18 413.556C525.439 413.593 527.744 413.863 531 414" stroke="white"/>
<path d="M542 287C540.5 302.5 540.5 305.5 542 318.5C542.695 324.522 544.136 329.295 547 340C548.378 344.408 552.184 350.334 555.492 355.436C559.326 361.35 557.1 362.525 550.5 365V365C546.5 366.5 544.725 366.289 540.5 368C535.829 369.892 534.5 371 531.5 374C528.787 376.713 524.328 378.241 520.5 378C515.967 377.715 514.095 376.776 510.5 374C507.214 371.463 505.245 368.588 502 366C496.3 361.454 493.5 360.5 488.5 358.5V358.5C482.253 356.001 482.226 351.892 487.194 347.355C490.722 344.132 493.74 340.761 495.5 338C501.748 328.196 502.5 326.5 507.5 316C512 306.55 513.5 301 516.5 283" stroke="white" stroke-width="2"/>
<path d="M404 269C404 269 403.827 269.937 403.573 271.397C402.811 275.784 402.452 280.241 402.602 284.691C402.94 294.719 404.195 302.29 407.455 309.887C409.248 314.067 411.833 317.872 414.924 321.207C424.483 331.518 434.5 336.162 449.5 337.5C467.961 339.146 483 333 494.5 321C507.5 308.5 511.124 297.877 513.5 280M404 269C404 269 404.817 266.5 406.5 263.5M404 269L395.5 268L388.5 261L384.5 237L390 256L396 261.5L406.5 263.5M513.5 280C522.5 278 540.5 281 546.5 285M513.5 280C514.096 275.513 511.653 271.563 509.593 269.113C508.012 267.232 506.147 265.593 504.109 264.22C493.392 256.998 470.828 252.141 449.5 248.5M546.5 285C544.5 302 544.658 313.464 553.5 328C562.348 342.547 571.929 350.088 588.5 354C606 356.5 617.5 355 630.5 347C644.153 337.89 650.238 326.757 652.5 310.5C653.254 305.085 653.5 301 653.5 301M546.5 285C552 274 557 271.5 564.5 269.5C571.5 267.633 585.5 266.628 602.5 268M653.5 301H664L668.5 298L674 270.5L667.5 293.5L664.5 295.5H653.042M653.5 301C653.5 301 653.6 298.707 653.042 295.5M602.5 268C616.168 270.071 625.719 270.769 638.259 277.201C643.899 280.094 649.301 284.077 651.552 290.003C652.293 291.952 652.755 293.847 653.042 295.5M602.5 268C574.187 265.657 559.111 265.819 531.5 262.5C499.246 258.622 484 255.5 449.5 248.5M449.5 248.5C439.511 248.5 432.371 248.856 427.039 249.511C418.835 250.518 411.896 255.374 407.324 262.26C407.053 262.668 406.779 263.082 406.5 263.5" stroke="white" stroke-width="2"/>
<path d="M682.5 298.5C672 302 665 317.5 661 333" stroke="white"/>
<path d="M640.5 364.5C640.5 364.5 642.571 374.5 648 374.5C648.661 374.5 649.323 374.486 649.982 374.441C657.533 373.921 660.521 365.347 661.338 357.823C661.481 356.502 661.788 354.995 662.5 353C668.5 342.5 676.099 333.868 683.5 321.5C689.185 312 695 302.5 699 288.5C700.31 281.948 700.858 273.869 698.975 264.93C698.439 262.389 696.609 260.19 694.046 260.613C690.664 261.17 686.463 263.241 683.541 264.875C681.136 266.22 678.876 267.859 677.409 270.191C673.005 277.189 667.731 291.937 659 301.5" stroke="white" stroke-width="2"/>
<path d="M456 100.5C456 100.5 459.361 54.7755 479.5 38.5C493.86 26.8947 506.176 26.2615 524.5 24C540.991 21.9648 550.637 23.1147 567 26C586.277 29.399 596.964 33.304 614.5 42C632.744 51.0471 657.5 71.5 657.5 71.5M467 113.5C467 113.5 467.289 79.4995 479.5 63.5C488.053 52.2931 495.72 47.9519 508.5 42C525.204 34.2208 536.598 33.0598 555 34C573.643 34.9526 582.597 38.246 600 45C619.458 52.5515 631.067 60.0232 648.5 71.5" stroke="white" stroke-width="2"/>
<path d="M480.776 114.356C481.998 110.115 483.148 105.871 484.166 101.572C485.33 96.6568 485.562 91.1895 488.353 86.8387C491.763 81.5235 496.306 75.6837 502.09 72.792C508.31 69.682 514.937 67.6794 520.967 64.1955C523.968 62.4614 527.768 61.8445 531.025 60.7171C534.894 59.3779 538.693 57.7825 542.591 56.5296C549.761 54.2249 558.092 53.8687 565.544 53.029C569.708 52.5598 574.072 52.8177 578.261 52.5638C582.467 52.3089 586.431 52.0987 590.624 52.6302C599.316 53.7319 607.473 56.8697 615.838 59.3213C626.493 62.4444 637.728 64.6757 648.672 66.4997" stroke="white" stroke-width="2" stroke-linecap="round" stroke-linejoin="round"/>
<path d="M501.115 114.755C504.958 107.973 508.203 100.29 513.079 94.1944C515.338 91.3717 518.314 89.0226 521.033 86.6615C523.737 84.3133 526.2 81.6606 529.054 79.483C533.915 75.7729 538.967 74.5295 544.585 72.3932C549.562 70.5003 553.941 67.6583 559.163 66.3225C564.701 64.9059 570.477 64.434 576.068 63.1099C582.501 61.5864 588.937 60.954 595.543 60.6063C605.666 60.0735 615.957 60.1189 626.096 60.1189C631.281 60.1189 636.405 61.7141 641.494 61.7141" stroke="white" stroke-width="2" stroke-linecap="round" stroke-linejoin="round"/>
<path d="M532.621 112.761C535.669 107.448 538.419 102.194 540.907 96.5872C543.392 90.9865 546.429 85.638 551.187 81.6542C555.074 78.4005 559.289 75.861 563.506 73.08C571.644 67.7121 581.014 65.26 590.757 64.5943C596.625 64.1934 602.601 64.5057 608.482 64.5057C613.81 64.5057 619.034 63.8962 624.345 63.7302C629.606 63.5658 634.856 63.6431 640.076 64.2841C643.434 64.6965 646.884 65.3033 650.268 65.3033" stroke="white" stroke-width="2" stroke-linecap="round" stroke-linejoin="round"/>
<path d="M559.341 114.356C560.936 108.087 563.864 102.152 566.608 96.3213C568.662 91.9557 570.831 87.8453 573.698 83.9584C579.172 76.5343 588.272 71.4899 597.271 69.7787C608.123 67.7152 619.731 68.0948 630.726 68.0948C639.706 68.0948 649.514 68.9938 658.244 66.4996" stroke="white" stroke-width="2" stroke-linecap="round" stroke-linejoin="round"/>
<path d="M576.09 125.523C581.374 114.329 588.165 103.205 597.714 95.1249C606.027 88.0915 617.256 84.4475 627.558 81.2775C632.188 79.8528 637.238 78.9003 642.07 78.5524C647.207 78.1826 651.908 79.3188 656.87 80.4578C662.654 81.7851 669.013 83.6482 674.994 83.6482" stroke="white" stroke-width="2" stroke-linecap="round" stroke-linejoin="round"/>
<path d="M584.066 131.903C588.985 125.411 596.974 121.667 603.918 117.857C608.237 115.487 612.857 113.579 617.566 112.141C621.392 110.972 624.918 108.849 628.732 107.776C635.331 105.92 641.683 103.091 648.495 102.082C653.778 101.299 658.877 100.797 664.226 100.797C668.214 100.797 672.202 100.797 676.19 100.797C678.61 100.797 680.948 101.826 683.28 102.303C685.307 102.718 687.079 102.962 688.952 103.899C690.034 104.439 691.672 105.249 692.763 105.56C693.902 105.886 694.479 106.709 695.532 107.178C698.147 108.34 699.095 111.888 701.713 112.761" stroke="white" stroke-width="2" stroke-linecap="round" stroke-linejoin="round"/>
<path d="M600.816 131.106C607.447 127.889 614.072 125.113 621.155 123.13C624.955 122.066 628.821 121.26 632.632 120.25C639.872 118.328 647.271 117.501 654.566 115.951C659.469 114.909 664.423 114.312 669.41 115.065C672.642 115.553 676.069 116.519 679.292 116.749C682.122 116.951 684.78 118.743 687.755 118.743C689.65 118.743 691.454 119.441 693.338 119.541C694.696 119.612 696.543 120.057 697.725 120.648C698.379 120.975 701.831 122.074 700.517 122.731" stroke="white" stroke-width="2" stroke-linecap="round" stroke-linejoin="round"/>
<path d="M614.774 138.683C629.805 129.999 650.869 132.104 666.796 136.778C671.589 138.184 676.55 139.538 680.976 141.874C684.456 143.71 687.377 146.559 690.946 148.343C692.914 149.327 693.263 150.169 695 151.5C697.466 153.389 697.312 153.947 700 155.5C701.226 156.208 703.674 159.739 704.416 161C705.493 162.83 705.798 166.972 706.5 169C706.915 170.199 708.006 194.742 708.006 196" stroke="white" stroke-width="2" stroke-linecap="round" stroke-linejoin="round"/>
<path d="M621.953 138.683C630.728 139.834 639.515 140.79 648.318 141.696C656.182 142.506 665.203 143.967 672.202 147.856C674.72 149.255 675.927 152.919 677.807 155.034C680.579 158.153 682.983 161.567 685.362 165.004C688.281 169.22 694.159 172.174 695.643 177.367C696.446 180.178 697.055 183.932 698.722 186.34C699.661 187.696 700.587 189.471 701.315 190.926" stroke="white" stroke-width="2" stroke-linecap="round" stroke-linejoin="round"/>
<path d="M625.941 145.862C638.575 153.232 652.207 158.338 664.314 166.688C668.995 169.916 673.936 173.246 676.899 178.253C678.94 181.702 680.704 185.412 682.593 188.955C684.092 191.766 686.918 193.683 688.331 196.51C689.296 198.439 690.043 200.624 690.724 202.669C691.742 205.722 692.375 209.82 694.136 212.462" stroke="white" stroke-width="2" stroke-linecap="round" stroke-linejoin="round"/>
<path d="M661.434 192.123C664.352 197.822 667.701 201.943 673.177 205.261C674.694 206.181 676.239 207.153 677.94 207.676C678.482 207.843 679.159 208.03 679.38 208.474" stroke="white" stroke-width="2" stroke-linecap="round" stroke-linejoin="round"/>
<path d="M658.643 204.486C663.024 208.953 667.089 213.394 671.847 217.491C675.36 220.516 679.292 223.141 682.571 226.42" stroke="white" stroke-width="2" stroke-linecap="round" stroke-linejoin="round"/>
<path d="M667.018 226.819C668.427 233.709 673.207 239.719 678.982 243.568" stroke="white" stroke-width="2" stroke-linecap="round" stroke-linejoin="round"/>
<path d="M666.22 243.568C667.886 246.902 669.726 249.897 671.714 253.051C672.595 254.449 674.383 256.33 676.19 256.33" stroke="white" stroke-width="2" stroke-linecap="round" stroke-linejoin="round"/>
<path d="M371.217 228.308C371.217 221.687 372.05 215.542 372.612 209.076C373.036 204.199 372.278 199.08 372.278 194.362C372.278 192.167 371.906 189.604 372.298 187.448C373.032 183.411 374.581 179.34 375.087 175.288C375.472 172.213 376.898 169.125 377.661 166.074C378.511 162.673 378.289 158.984 378.289 155.466C378.289 148.288 377.228 141.154 377.228 134.054C377.228 128.344 379.295 122.833 381.825 117.631C382.944 115.332 383.951 112.991 385.165 110.736C386.233 108.751 386.581 106.1 388.17 104.41C391.006 101.398 392.479 97.0764 395.439 94.1167C396.567 92.989 397.117 90.7796 397.914 89.3627C398.92 87.5742 399.89 85.9552 400.743 84.0587C402.626 79.8747 406.152 76.4005 409.249 73.0971C410.886 71.3508 413.806 69.9916 415.85 68.7557C417.997 67.4574 420.015 65.8382 422.489 65.2197C424.146 64.8056 425.528 64.0765 427.165 63.6088C428.947 63.0996 430.88 63.3623 432.665 62.7445C435.449 61.7808 437.953 60.4132 440.346 58.7566C442.355 57.3658 443.877 56.1812 445.473 54.3563C446.766 52.8796 449.252 52.1123 450.07 50.2702C450.884 48.4403 452.408 46.3814 453.803 44.9466C455.639 43.0579 456.544 40.571 457.928 38.346C460.832 33.6787 464.7 29.3716 468.104 25.0663C470.717 21.7617 474.113 19.3059 477.494 16.9925C479.69 15.4902 482.007 13.7419 484.428 12.6117C486.542 11.6252 489.186 11.7668 491.265 10.6473C494.603 8.84963 498.915 8.85821 502.403 7.30774C505.74 5.82467 509.359 5.05937 512.658 3.49671C517.736 1.09123 522.731 1.65013 528.039 1.65013C534.07 1.65013 539.643 3.90925 545.385 5.46116C549.943 6.69286 555.061 9.73736 558.468 12.9653C560.173 14.5804 562.03 16.5131 563.497 18.3479C564.009 18.9872 564.983 20.0229 565.344 20.7446" stroke="white" stroke-width="2" stroke-linecap="round" stroke-linejoin="round"/>
<path d="M545.896 4.83252C556.713 4.83252 567.416 5.94901 577.347 10.2937C584.147 13.2687 591.615 14.92 598.602 17.3657C601.352 18.3281 604.24 18.5051 606.892 19.6837C608.289 20.3044 609.237 22.1418 610.605 22.8662C611.878 23.5399 613.192 24.2174 614.416 24.9878C616.358 26.2105 618.531 26.8718 620.525 27.9934C622.343 29.016 624.304 29.7156 626.163 30.6454C627.409 31.2679 629.369 31.8934 630.407 32.767C631.74 33.8901 633.895 34.1759 635.436 35.2422C637.244 36.4944 638.684 38.2122 640.641 39.2889C641.85 39.9538 643.151 40.7408 644.02 41.8034C648.283 47.0136 651.724 52.6503 655.669 58.0298C656.739 59.4886 657.694 61.03 658.773 62.4694C660.077 64.2077 661.952 65.3731 663.468 66.8894C665.178 68.5996 665.877 69.7364 666.827 71.9381C668.019 74.6967 670.172 78.1905 672.308 80.3263C673.767 81.7848 674.734 85.3404 676.375 86.1607" stroke="white" stroke-width="2" stroke-linecap="round" stroke-linejoin="round"/>
<path d="M664.706 82.6248C674.135 87.2467 682.561 93.2398 687.965 102.426C688.336 103.057 689.185 103.183 689.812 103.487C691.024 104.076 692.123 105.123 693.367 105.589C695.308 106.317 695.911 108.039 697.591 109.066C699.346 110.139 700.71 111.412 702.541 112.327" stroke="white" stroke-width="2" stroke-linecap="round" stroke-linejoin="round"/>
<path d="M683.093 103.487C688.404 105.763 692.481 110.733 695.469 115.588C696.341 117.004 697.323 118.493 698.121 119.93C698.896 121.323 700.494 122.377 701.127 123.642" stroke="white" stroke-width="2" stroke-linecap="round" stroke-linejoin="round"/>
<path d="M667.888 116.57C670.986 120.659 676.78 123.386 681.502 125.234C683.575 126.045 684.877 127.643 686.629 128.77C690.001 130.937 693.156 133.018 695.626 136.195C696.503 137.322 696.688 139.044 697.768 139.908C698.188 140.244 698.501 141.515 698.73 142.03C699.289 143.286 700.274 144.343 700.95 145.546C702.61 148.497 705.128 151.172 706.097 154.563C707.045 157.882 708.706 161.406 708.906 165.014C709.098 168.476 709.063 172.082 709.26 175.622C709.355 177.335 709.613 179.115 709.613 180.926C709.613 182.688 708.906 184.391 708.906 186.23C708.906 187.718 708.553 189.51 708.553 191.18C708.553 192.987 709.26 194.34 709.26 196.13" stroke="white" stroke-width="2" stroke-linecap="round" stroke-linejoin="round"/>
<path d="M702.188 162.185C702.188 167.491 704.735 173.137 702.109 178.097C700.943 180.299 700.773 182.277 700.773 184.815C700.773 187.05 701.834 188.58 701.834 190.826" stroke="white" stroke-width="2" stroke-linecap="round" stroke-linejoin="round"/>
<path d="M699.005 186.23C696.709 188.024 695.694 190.789 695.096 193.479C694.573 195.832 695.116 197.854 695.116 200.197C695.116 202.377 695.116 204.558 695.116 206.739C695.116 207.595 694.982 212.463 694.408 212.75" stroke="white" stroke-width="2" stroke-linecap="round" stroke-linejoin="round"/>
<path d="M692.64 212.75C693.967 216.233 692.715 220.169 693.682 223.554C694.238 225.5 693.348 227.811 693.348 229.723C693.348 232.524 691.554 235.041 691.246 237.816C691.019 239.857 689.558 242.272 688.574 244.043C687.579 245.835 687.492 247.76 686.708 249.524C686.067 250.966 685.568 253.474 685.568 255.005C685.568 256.538 684.241 257.94 684.154 259.425C684.123 259.958 683.597 261.11 683.427 261.704C683.246 262.34 682.625 263.018 682.032 263.315" stroke="white" stroke-width="2" stroke-linecap="round" stroke-linejoin="round"/>
<path d="M467.494 120.949C463.294 122.406 459.017 123.053 454.789 124.337C450.508 125.636 446.38 127.165 442.177 128.666C439.831 129.504 438.221 131.418 436.248 132.808C433.608 134.665 430.389 136.878 428.106 139.16C423.722 143.545 420.433 148.623 416.765 153.56C415.742 154.937 414.406 156.343 413.518 157.796C412.632 159.246 412.498 160.946 411.589 162.36C409.857 165.054 407.82 167.472 405.989 170.078C401.103 177.031 396.634 184.951 394.742 193.278C394.057 196.29 392.104 199.102 391.354 202.172C390.374 206.178 387.781 209.988 387.118 214.031C386.217 219.531 384.907 225.081 384.907 230.642C384.907 234.207 383.212 237.356 383.212 240.807" stroke="white" stroke-width="2" stroke-linecap="round" stroke-linejoin="round"/>
<path d="M456.483 117.984C453.16 119.83 449.254 120.24 445.753 121.796C440.379 124.184 435.211 127.527 429.989 130.266C424.955 132.907 419.3 134.821 414.883 138.502C410.502 142.152 406.613 145.703 403.424 150.525C399.859 155.917 397.148 162.133 394.648 168.054C393.586 170.569 392.173 173.009 390.836 175.396C389.362 178.028 388.659 181.082 387.024 183.631C382.242 191.085 378.558 200.706 377.307 209.466C376.437 215.555 372.624 221.443 372.624 227.678" stroke="white" stroke-width="2" stroke-linecap="round" stroke-linejoin="round"/>
<path d="M430.224 100.196C426.669 103.646 422.098 105.077 417.918 107.608C411.483 111.502 405.068 115.571 398.883 119.866C394.992 122.568 390.246 124.378 387.683 128.572C386.171 131.046 384.609 133.518 383.448 136.172C382.425 138.51 382.4 141.275 381.612 143.725C380.846 146.111 379.968 148.503 379.824 151.019C379.707 153.078 378.554 154.972 378.554 157.043C378.554 158.484 378.745 159.953 378.13 161.184" stroke="white" stroke-width="2" stroke-linecap="round" stroke-linejoin="round"/>
<path d="M446.318 93.8429C442.745 92.4485 438.374 92.7023 434.883 94.1723C432.767 95.0633 428.792 94.2665 426.506 94.2665C423.077 94.2665 419.675 93.8429 416.224 93.8429C407.642 93.8429 400.401 99.3876 393.471 104.008C388.672 107.207 386.807 111.699 383.401 116.078C381.484 118.543 381.468 121.803 380.248 124.549C379.298 126.686 377.707 128.848 377.707 131.113" stroke="white" stroke-width="2" stroke-linecap="round" stroke-linejoin="round"/>
<path d="M437.001 85.7959C433.381 82.3828 426.98 83.7269 422.389 84.5253C416.997 85.463 412.314 88.5555 407.26 90.3606C404.286 91.4224 401.278 93.1931 398.248 93.8665C396.189 94.3239 395.025 96.1328 393.377 97.2312" stroke="white" stroke-width="2" stroke-linecap="round" stroke-linejoin="round"/>
<path d="M442.083 76.9018C437.339 74.125 432.284 73.9371 426.836 73.9371C424.655 73.9371 422.475 73.9371 420.295 73.9371C418.876 73.9371 417.677 74.7048 416.248 74.7842C414.096 74.9037 410.337 77.3149 408.412 78.3842C406.128 79.653 403.663 80.4916 401.424 81.9842" stroke="white" stroke-width="2" stroke-linecap="round" stroke-linejoin="round"/>
<path d="M444.624 77.7489C441.72 73.7564 442.453 67.8504 444.718 63.7724C445.638 62.1161 447.059 60.8318 447.918 59.1136C448.603 57.7432 449.497 55.8531 450.459 54.7842C451.926 53.1541 454.124 48.5785 454.365 46.4078C454.49 45.2851 455.759 42.9871 456.483 42.1725C457.417 41.1213 457.579 39.7711 458.812 38.7843C460.734 37.2471 462.326 35.1281 463.471 33.0667C465.152 30.0417 467.502 27.5249 469.189 24.5726C470.535 22.217 473.05 21.1454 474.695 19.0902C476.127 17.2991 478.967 15.6833 481.048 14.6432" stroke="white" stroke-width="2" stroke-linecap="round" stroke-linejoin="round"/>
<path d="M558.692 270.534C559.867 267.714 560.047 265.208 562.418 263.041C564.401 261.228 566.88 260.324 568.826 258.545" stroke="white" stroke-linecap="round" stroke-linejoin="round"/>
<path d="M568.528 266.719C569.565 265.512 570.462 264.193 571.806 263.238C572.906 262.456 574.232 262.049 575.217 261.149C576.19 260.26 577.45 259.397 578.065 258.273" stroke="white" stroke-linecap="round" stroke-linejoin="round"/>
<path d="M573.25 268C574.609 265.054 576.66 263.232 579.583 261.295C580.72 260.542 582.612 259.27 583.095 258" stroke="white" stroke-linecap="round" stroke-linejoin="round"/>
<path d="M578.661 266.174C580.375 264.608 582.129 263.052 583.728 261.391C585.138 259.926 586.717 258.81 588.199 257.455" stroke="white" stroke-linecap="round" stroke-linejoin="round"/>
<path d="M584.92 265.902C585.694 262.277 589.848 257.455 594.16 257.455" stroke="white" stroke-linecap="round" stroke-linejoin="round"/>
<path d="M588.795 265.084C590.644 263.046 592.766 260.885 595.054 259.241C596.523 258.186 598.359 258.273 600.121 258.273" stroke="white" stroke-linecap="round" stroke-linejoin="round"/>
<path d="M595.65 264.812C596.618 260.783 601.391 259.685 605.188 258.818" stroke="white" stroke-linecap="round" stroke-linejoin="round"/>
<path d="M599.503 266C600.539 263.207 603.029 262.282 605.422 261.107C606.779 260.441 608.29 260.373 609.737 260.086C610.313 259.972 611.05 259.918 611.536 260.272" stroke="white" stroke-linecap="round" stroke-linejoin="round"/>
<path d="M604.972 266C607.708 262.525 611.783 262 615.911 262" stroke="white" stroke-linecap="round" stroke-linejoin="round"/>
<path d="M611.536 267C614.935 264.631 619.79 265.024 623.569 265.024" stroke="white" stroke-linecap="round" stroke-linejoin="round"/>
<path d="M618.141 268.542C621.431 268.112 624.58 266.73 628 267.99" stroke="white" stroke-linecap="round" stroke-linejoin="round"/>
<path d="M609.062 265.902C612.372 264.721 614.817 263.5 619.196 263.45" stroke="white" stroke-linecap="round" stroke-linejoin="round"/>
<path d="M614.817 268C615.496 267.641 615.548 266.778 620.287 266.5C622.222 266.387 623.817 266.5 625.209 266.5" stroke="white" stroke-linecap="round" stroke-linejoin="round"/>
<path d="M565.347 267.661C566.174 265.723 569.444 262.479 571.062 261C572.156 260 574.343 258.5 575.437 258.5" stroke="white" stroke-linecap="round" stroke-linejoin="round"/>
<path d="M561.348 269.946C562.375 267.539 563.321 264.615 565.592 263C566.501 262.354 567.233 261.5 568.327 261C568.97 260.244 570.722 258.905 571.609 258.5" stroke="white" stroke-linecap="round" stroke-linejoin="round"/>
<path d="M503.426 263.284C502.969 260.029 503.442 257.355 501.6 254.481C500.059 252.077 497.777 250.5 496.265 248.142" stroke="white" stroke-linecap="round" stroke-linejoin="round"/>
<path d="M494.429 256.79C493.69 255.261 493.124 253.651 492.009 252.308C491.096 251.209 489.854 250.447 489.089 249.253C488.333 248.073 487.278 246.85 486.948 245.514" stroke="white" stroke-linecap="round" stroke-linejoin="round"/>
<path d="M489.296 256.937C488.686 253.503 487.079 251.072 484.615 248.3C483.657 247.222 482.067 245.408 481.909 243.953" stroke="white" stroke-linecap="round" stroke-linejoin="round"/>
<path d="M484.275 253.65C482.944 251.573 481.568 249.497 480.378 247.349C479.328 245.456 478.016 243.885 476.865 242.088" stroke="white" stroke-linecap="round" stroke-linejoin="round"/>
<path d="M477.986 251.778C478.148 247.78 475.189 241.67 470.808 240.577" stroke="white" stroke-linecap="round" stroke-linejoin="round"/>
<path d="M474.263 249.939C472.917 247.332 471.327 244.528 469.432 242.224C468.215 240.745 466.327 240.371 464.537 239.924" stroke="white" stroke-linecap="round" stroke-linejoin="round"/>
<path d="M467.369 247.915C467.44 243.445 462.877 241.084 459.245 239.211" stroke="white" stroke-linecap="round" stroke-linejoin="round"/>
<path d="M463.143 248.185C462.82 244.993 460.532 243.391 458.408 241.553C457.204 240.51 455.686 240.056 454.291 239.388C453.736 239.123 453.001 238.88 452.414 239.127" stroke="white" stroke-linecap="round" stroke-linejoin="round"/>
<path d="M457.585 246.799C455.714 242.46 451.711 240.877 447.516 239.831" stroke="white" stroke-linecap="round" stroke-linejoin="round"/>
<path d="M450.654 246.184C447.82 242.837 442.784 242.02 438.944 241.062" stroke="white" stroke-linecap="round" stroke-linejoin="round"/>
<path d="M443.539 246.126C440.308 244.842 437.471 242.594 433.666 243.049" stroke="white" stroke-linecap="round" stroke-linejoin="round"/>
<path d="M453.455 245.659C450.401 243.582 448.235 241.681 443.8 240.519" stroke="white" stroke-linecap="round" stroke-linejoin="round"/>
<path d="M447.058 246.401C446.462 245.852 446.635 244.934 441.893 243.441C439.956 242.832 438.306 242.547 436.891 242.194" stroke="white" stroke-linecap="round" stroke-linejoin="round"/>
<path d="M497.415 258.585C497.081 256.343 494.608 252.111 493.351 250.15C492.501 248.824 490.67 246.696 489.559 246.419" stroke="white" stroke-linecap="round" stroke-linejoin="round"/>
<path d="M500.881 261.995C500.466 259.21 500.27 255.903 498.385 253.634C497.631 252.726 497.11 251.645 496.129 250.843C495.674 249.887 494.244 248.039 493.449 247.389" stroke="white" stroke-linecap="round" stroke-linejoin="round"/>
<path d="M487 444.744C503.5 443.244 513.5 443.744 528 448.744" stroke="white"/>
<path d="M393.5 273.5L383.851 249.781C382.286 245.931 380.492 242.171 378.139 238.746C374.332 233.203 368.065 225.348 363.5 226C359 227.5 354.31 235 355 249.5C355.5 260 362.927 273.75 366.5 286C372.268 305.777 375.32 309.597 381.252 322.08C384.176 328.233 380.554 334.142 383 340.5V340.5C385.408 345.008 386 347 391 348.5C396 350 399 345 399 345" stroke="white" stroke-width="2"/>
<path d="M372 264.5C377.5 274 382.5 286.5 384 302" stroke="white"/>
<path d="M620.5 408.5C620.5 408.5 608.431 459.459 608.384 494.597C608.379 498.471 610.712 504.187 612.788 507.459V507.459C616.507 513.323 619.545 517.097 619.407 524.04C618.788 555.248 614.601 568.059 593 587.5C556.701 620.17 532.342 632.251 489.658 640.933C480.634 642.768 471.325 643.004 462.269 641.334C429.355 635.265 407.623 624.185 379 601.5M404.5 380.5C402.74 412.083 401.344 430.175 396.495 458.37C395.223 465.764 393.014 473.015 389.112 479.423C380.781 493.1 369.5 506.5 369.5 506.5" stroke="white" stroke-width="3"/>
<path d="M401 428.5C401 428.5 379.177 444.107 369 455.5C355.079 471.085 347.5 502 347.5 502C347.5 502 268 529.5 212.5 547C174.319 560.475 163.175 565.477 130.128 579.767C122.098 583.24 114.607 587.873 107.752 593.308C93.375 604.704 80.6528 614.297 72 628.5C59.5 656.5 55.1181 674.944 47 705.5C37.0883 742.807 37.8318 765.172 28 802.5C19.5855 834.447 2 883 2 883M612.5 456C612.5 456 632.943 475.915 642 491.5C649.925 505.137 657 529 657 529C657 529 737.044 556.588 785.5 583C828.299 606.329 860.034 618.806 890 658C901.901 673.565 905.397 677.481 912.5 694C918.843 708.75 922.401 720.246 925.5 736" stroke="white" stroke-width="3"/>
<path d="M370.5 455C366.595 471.793 357.944 480.95 360.5 498C362.831 513.551 374.686 518.531 379.5 533.5C385.324 551.608 384 582 384 582C384 582 360.611 613.376 355.5 634.5C348 665.5 346.36 684.861 350 717.5C353.429 748.245 364.43 755.833 368.5 786.5C373.407 823.481 368 848 360.5 883M614 457.5C614 457.5 621.762 465.442 626.5 476.5C634.502 495.174 633.009 506.209 632 526.5C630.324 560.2 631.582 593.251 614 622.5C598.887 647.642 578 652.5 561.5 669C559.861 677.434 561.5 691 561.5 691M561.5 691L518.435 743.259C517.523 744.366 517.13 745.812 517.357 747.228L520.549 767.182C520.802 768.761 522.248 769.864 523.837 769.691L546.863 767.179C547.926 767.063 548.924 766.609 549.711 765.883L600 719.5M561.5 691L589.5 664L611.659 639.955C612.521 639.02 613.706 638.449 614.973 638.356L637.995 636.682C639.444 636.577 640.761 637.526 641.12 638.934L646.86 661.484C647.261 663.061 646.87 664.735 645.81 665.971L623.5 692L600 719.5M600 719.5C600 719.5 623.691 732.387 634.5 747C644.38 760.357 649.741 771.708 653 788C660.5 825.5 662.5 851 662.5 883" stroke="white" stroke-width="3"/>
<path d="M347.5 502C347.5 502 330.556 518.5 327 534.5C324 548 323.531 570.086 327 589.5C330.469 608.914 335 621 347 639.5M657.5 529.5C657.5 529.5 670.081 552.145 675 570C680.923 591.5 682.995 621.33 677 643.5C671.005 665.67 661.925 685 648.5 699.5C636.099 712.893 612.5 727.5 612.5 727.5" stroke="white" stroke-width="2" stroke-linecap="round" stroke-dasharray="4 4"/>
<path d="M326.5 540.5C326.5 540.5 291.532 563.623 268 576.5C242.563 590.419 225.89 593.624 201 608.5C178.067 622.206 164.67 629.891 145.5 648.5C131.974 661.63 124.673 669.63 114.5 685.5C101.853 705.229 99.6676 718.933 90.5 740.5C86.3575 750.245 81.2915 754.99 80 765.5C78.7235 775.888 84.0809 781.534 84 792C83.8652 809.434 74.479 817.743 72 835C70.1102 848.156 72.856 855.92 70.5 869C69.4674 874.733 67 883.5 67 883.5M325 560C325 560 317.791 566.522 313 570.5C295.374 585.134 284.206 591.817 264.5 603.5C247.446 613.611 219.5 627 219.5 627C219.5 627 194.02 641.702 179 653C165.832 662.905 157.488 667.791 147 680.5C140.727 688.102 137.898 692.947 133 701.5C126.182 713.406 123.574 720.753 118.5 733.5C113.909 745.032 112.655 751.993 108 763.5C105.606 769.418 102.903 772.272 101.5 778.5C99.1723 788.83 103.757 794.914 104 805.5C104.324 819.589 104.518 827.734 101.5 841.5C99.7935 849.283 96.7426 853.13 95.5 861C94.1296 869.679 95.5 883.5 95.5 883.5" stroke="white" stroke-linecap="round" stroke-dasharray="4 4"/>
<path d="M311.5 518.5C310 530.5 310 535.5 310 547M285 527C284 541.5 284 548.5 285 562M262.5 535.5C261.5 551.5 261.5 558.5 262.5 574.5M237 544.5C236 561 236 569 237 586M214 550.5C214 568.5 214 577 216 594M188.5 560.5C188.5 581 188.5 593 191.5 610M166 570C166 591.5 166.5 607 169.5 624M142.5 579.5C142.5 605.5 143 621.5 146 643.5M118.5 590.5C119.5 616.5 122.5 639 127.5 662M96.5 607.5C95.4999 641.5 108 690 123 722M87.5 614C89.5 663.5 98 685.5 116 733.5" stroke="white" stroke-linecap="round" stroke-dasharray="3 3"/>
<path d="M679 582C679 582 721.141 604.374 746 622C762.444 633.659 772.318 639.676 786.5 654C800.899 668.543 818.5 695.5 818.5 695.5C818.5 695.5 835.41 721.171 843.5 738.5C851.075 754.726 852.242 764.376 859 780.5C865.078 795.002 871.656 801.887 876 817C879.547 829.342 878.651 836.875 881 849.5C883.487 862.868 888.5 883.5 888.5 883.5M682 604C682 604 687.914 614.708 693.5 620C700.234 626.38 706.153 627.053 714 632C731.014 642.726 739.768 649.968 755.5 662.5C765.258 670.273 771.486 674.041 779 684C785.048 692.017 786.426 697.521 791.5 706C801.845 723.287 820 749 820 749C820 749 828.628 761.788 832.5 770.5C838.5 784 836.253 786.448 841 800.5C845.966 815.203 853.712 825.289 857.5 842.5C860.951 858.179 860.5 883.5 860.5 883.5" stroke="white" stroke-linecap="round" stroke-dasharray="4 4"/>
<path d="M688.5 545.5C689.5 559 690.5 571 690.5 584.5M715.5 555.5C717 572.5 717 599.5 717 599.5M739 565C741.5 585 741 613 741 613M763 575.5C765.5 601.5 762.5 629 762.5 629M786 588C787 617 782.5 646.5 782.5 646.5M810 600.5C808.5 635 800.5 666 800.5 666M832 613C826.5 653.5 816.5 687 816.5 687M854 628C845.5 671 832 710 832 710M876 648C862.5 697 846 735.5 846 735.5M898.5 674C875 726.5 867.5 746 839.5 788M905.5 685C884 733.5 873 758 844.5 803" stroke="white" stroke-linecap="round" stroke-dasharray="3 3"/>
<path d="M599 664.5L621.5 683" stroke="white" stroke-linecap="round" stroke-dasharray="2 2"/>
<path d="M611.5 683C611.5 687.646 607.298 691.5 602 691.5C596.702 691.5 592.5 687.646 592.5 683C592.5 678.354 596.702 674.5 602 674.5C607.298 674.5 611.5 678.354 611.5 683Z" stroke="white"/>
<path d="M592.5 701C592.5 705.646 588.298 709.5 583 709.5C577.702 709.5 573.5 705.646 573.5 701C573.5 696.354 577.702 692.5 583 692.5C588.298 692.5 592.5 696.354 592.5 701Z" stroke="white"/>
<path d="M548.5 750C548.5 755.165 543.441 759.5 537 759.5C530.559 759.5 525.5 755.165 525.5 750C525.5 744.835 530.559 740.5 537 740.5C543.441 740.5 548.5 744.835 548.5 750Z" stroke="white"/>
<path d="M542.5 748C542.5 748.905 541.997 749.768 541.095 750.424C540.194 751.079 538.925 751.5 537.5 751.5C536.075 751.5 534.806 751.079 533.905 750.424C533.003 749.768 532.5 748.905 532.5 748C532.5 747.095 533.003 746.232 533.905 745.576C534.806 744.921 536.075 744.5 537.5 744.5C538.925 744.5 540.194 744.921 541.095 745.576C541.997 746.232 542.5 747.095 542.5 748Z" stroke="white"/>
<path d="M588.5 700C588.5 702.442 586.307 704.5 583.5 704.5C580.693 704.5 578.5 702.442 578.5 700C578.5 697.558 580.693 695.5 583.5 695.5C586.307 695.5 588.5 697.558 588.5 700Z" stroke="white"/>
<path d="M608.5 682.5C608.5 685.186 605.895 687.5 602.5 687.5C599.105 687.5 596.5 685.186 596.5 682.5C596.5 679.814 599.105 677.5 602.5 677.5C605.895 677.5 608.5 679.814 608.5 682.5Z" stroke="white"/>
<path d="M532.5 748.5C537.5 744 542.5 748 542.5 748M579 698.5C579 698.5 582.5 705 588.5 700M601.5 677.5C596 685 605.5 686.5 605.5 686.5" stroke="white"/>
<path d="M300.165 820.392C223.382 817.403 191.645 811.693 128.333 813.419C126.753 813.462 125.456 814.73 125.41 816.311C124.679 841.605 126.347 858.419 128.157 872.397C128.351 873.888 129.634 874.999 131.138 875.006C187.137 875.268 228.6 883.772 295.661 882.064C297.027 882.029 298.215 881.065 298.515 879.732C302.061 864.016 303.848 853.189 303.078 823.309C303.037 821.731 301.742 820.453 300.165 820.392Z" stroke="white" stroke-linecap="round" stroke-dasharray="2 2"/>
<path d="M283.814 854.991L285.805 855.178L286.178 851.195L284.186 851.009L283.814 854.991ZM133.883 842.997C134.212 843.016 134.541 843.035 134.87 843.054L135.105 839.061C134.775 839.042 134.446 839.023 134.117 839.003L133.883 842.997ZM136.846 843.171C137.503 843.21 138.162 843.249 138.82 843.289L139.06 839.296C138.4 839.256 137.741 839.217 137.083 839.178L136.846 843.171ZM140.796 843.408C141.453 843.448 142.111 843.488 142.77 843.528L143.015 839.536C142.355 839.495 141.696 839.455 141.039 839.415L140.796 843.408ZM144.747 843.65C145.403 843.691 146.06 843.732 146.719 843.773L146.969 839.781C146.31 839.74 145.652 839.699 144.995 839.658L144.747 843.65ZM148.696 843.898C149.352 843.94 150.009 843.982 150.668 844.024L150.924 840.032C150.264 839.99 149.606 839.948 148.949 839.906L148.696 843.898ZM152.644 844.151C153.3 844.194 153.957 844.237 154.616 844.28L154.878 840.288C154.218 840.245 153.559 840.202 152.903 840.16L152.644 844.151ZM156.591 844.41C157.247 844.454 157.905 844.497 158.565 844.542L158.832 840.55C158.171 840.506 157.513 840.462 156.856 840.419L156.591 844.41ZM160.539 844.674C161.195 844.719 161.853 844.764 162.513 844.809L162.786 840.818C162.125 840.773 161.466 840.728 160.809 840.684L160.539 844.674ZM164.486 844.944C165.142 844.99 165.8 845.035 166.461 845.081L166.739 841.091C166.078 841.045 165.419 840.999 164.762 840.954L164.486 844.944ZM168.433 845.22C169.089 845.266 169.747 845.313 170.408 845.36L170.692 841.37C170.03 841.323 169.371 841.276 168.714 841.23L168.433 845.22ZM172.38 845.501C173.036 845.548 173.694 845.595 174.355 845.643L174.644 841.654C173.982 841.606 173.323 841.558 172.667 841.511L172.38 845.501ZM176.327 845.787C176.982 845.835 177.64 845.883 178.301 845.932L178.596 841.943C177.934 841.894 177.275 841.846 176.619 841.798L176.327 845.787ZM180.274 846.078C180.928 846.127 181.586 846.176 182.247 846.226L182.546 842.237C181.885 842.187 181.226 842.138 180.571 842.089L180.274 846.078ZM184.221 846.375C184.875 846.424 185.531 846.474 186.192 846.524L186.496 842.536C185.835 842.486 185.177 842.436 184.523 842.386L184.221 846.375ZM188.168 846.676C188.821 846.726 189.477 846.777 190.136 846.828L190.445 842.84C189.785 842.789 189.129 842.738 188.475 842.688L188.168 846.676ZM192.117 846.982C192.769 847.033 193.423 847.084 194.081 847.136L194.394 843.148C193.736 843.096 193.081 843.045 192.429 842.994L192.117 846.982ZM196.064 847.292C196.715 847.344 197.369 847.396 198.026 847.448L198.344 843.461C197.686 843.408 197.031 843.356 196.38 843.305L196.064 847.292ZM200.004 847.606C200.658 847.659 201.314 847.711 201.973 847.765L202.295 843.778C201.635 843.724 200.978 843.672 200.324 843.619L200.004 847.606ZM203.945 847.924C204.601 847.978 205.26 848.031 205.923 848.086L206.249 844.099C205.586 844.045 204.926 843.991 204.269 843.938L203.945 847.924ZM207.888 848.247C208.546 848.301 209.208 848.355 209.873 848.41L210.202 844.424C209.537 844.369 208.874 844.314 208.215 844.26L207.888 848.247ZM211.833 848.573C212.488 848.627 213.147 848.682 213.809 848.737L214.142 844.751C213.479 844.696 212.82 844.641 212.164 844.586L211.833 848.573ZM215.782 848.903C216.434 848.957 217.09 849.013 217.749 849.068L218.085 845.082C217.426 845.027 216.769 844.971 216.116 844.917L215.782 848.903ZM219.736 849.236C220.385 849.291 221.037 849.347 221.693 849.403L222.032 845.417C221.376 845.361 220.723 845.306 220.074 845.251L219.736 849.236ZM223.669 849.571C224.324 849.627 224.982 849.684 225.643 849.741L225.986 845.756C225.324 845.699 224.665 845.642 224.01 845.586L223.669 849.571ZM227.607 849.91C228.265 849.967 228.927 850.024 229.591 850.082L229.937 846.097C229.272 846.039 228.61 845.982 227.952 845.925L227.607 849.91ZM231.554 850.252C232.207 850.309 232.864 850.366 233.524 850.424L233.872 846.439C233.212 846.381 232.555 846.324 231.901 846.267L231.554 850.252ZM235.511 850.598C236.159 850.655 236.811 850.712 237.467 850.77L237.817 846.785C237.162 846.727 236.509 846.67 235.86 846.613L235.511 850.598ZM239.442 850.944C240.098 851.002 240.758 851.06 241.421 851.119L241.774 847.135C241.111 847.076 240.451 847.017 239.794 846.959L239.442 850.944ZM243.38 851.293C244.037 851.351 244.696 851.41 245.359 851.469L245.714 847.485C245.051 847.426 244.392 847.367 243.735 847.309L243.38 851.293ZM247.333 851.646C247.984 851.704 248.638 851.763 249.295 851.822L249.652 847.838C248.995 847.779 248.341 847.72 247.69 847.662L247.333 851.646ZM251.275 852C251.929 852.059 252.586 852.118 253.246 852.177L253.606 848.194C252.946 848.134 252.288 848.075 251.633 848.016L251.275 852ZM255.209 852.355C255.866 852.414 256.526 852.474 257.189 852.534L257.551 848.551C256.887 848.491 256.227 848.431 255.569 848.371L255.209 852.355ZM259.161 852.714C259.812 852.773 260.466 852.833 261.122 852.893L261.486 848.909C260.829 848.849 260.175 848.79 259.524 848.73L259.161 852.714ZM263.101 853.073C263.757 853.133 264.416 853.194 265.078 853.255L265.443 849.271C264.781 849.211 264.122 849.15 263.466 849.09L263.101 853.073ZM267.036 853.434C267.692 853.495 268.351 853.555 269.012 853.616L269.379 849.633C268.717 849.572 268.059 849.512 267.402 849.451L267.036 853.434ZM270.996 853.799C271.645 853.859 272.297 853.92 272.951 853.98L273.32 849.997C272.665 849.937 272.013 849.876 271.364 849.816L270.996 853.799ZM274.923 854.163C275.583 854.224 276.246 854.286 276.911 854.347L277.281 850.365C276.615 850.303 275.952 850.241 275.292 850.18L274.923 854.163ZM278.867 854.53C279.52 854.59 280.175 854.651 280.833 854.713L281.205 850.73C280.547 850.669 279.891 850.608 279.238 850.547L278.867 854.53ZM282.816 854.898C283.148 854.929 283.48 854.96 283.814 854.991L284.186 851.009C283.853 850.978 283.52 850.946 283.188 850.915L282.816 854.898Z" fill="white"/>
<path d="M281.814 858.991L283.805 859.178L284.178 855.195L282.186 855.009L281.814 858.991ZM131.883 846.997C132.212 847.016 132.541 847.035 132.87 847.054L133.105 843.061C132.775 843.042 132.446 843.023 132.117 843.003L131.883 846.997ZM134.846 847.171C135.503 847.21 136.162 847.249 136.82 847.289L137.06 843.296C136.4 843.256 135.741 843.217 135.083 843.178L134.846 847.171ZM138.796 847.408C139.453 847.448 140.111 847.488 140.77 847.528L141.015 843.536C140.355 843.495 139.696 843.455 139.039 843.415L138.796 847.408ZM142.747 847.65C143.403 847.691 144.06 847.732 144.719 847.773L144.969 843.781C144.31 843.74 143.652 843.699 142.995 843.658L142.747 847.65ZM146.696 847.898C147.352 847.94 148.009 847.982 148.668 848.024L148.924 844.032C148.264 843.99 147.606 843.948 146.949 843.906L146.696 847.898ZM150.644 848.151C151.3 848.194 151.957 848.237 152.616 848.28L152.878 844.288C152.218 844.245 151.559 844.202 150.903 844.16L150.644 848.151ZM154.591 848.41C155.247 848.454 155.905 848.497 156.565 848.542L156.832 844.55C156.171 844.506 155.513 844.462 154.856 844.419L154.591 848.41ZM158.539 848.674C159.195 848.719 159.853 848.764 160.513 848.809L160.786 844.818C160.125 844.773 159.466 844.728 158.809 844.684L158.539 848.674ZM162.486 848.944C163.142 848.99 163.8 849.035 164.461 849.081L164.739 845.091C164.078 845.045 163.419 844.999 162.762 844.954L162.486 848.944ZM166.433 849.22C167.089 849.266 167.747 849.313 168.408 849.36L168.692 845.37C168.03 845.323 167.371 845.276 166.714 845.23L166.433 849.22ZM170.38 849.501C171.036 849.548 171.694 849.595 172.355 849.643L172.644 845.654C171.982 845.606 171.323 845.558 170.667 845.511L170.38 849.501ZM174.327 849.787C174.982 849.835 175.64 849.883 176.301 849.932L176.596 845.943C175.934 845.894 175.275 845.846 174.619 845.798L174.327 849.787ZM178.274 850.078C178.928 850.127 179.586 850.176 180.247 850.226L180.546 846.237C179.885 846.187 179.226 846.138 178.571 846.089L178.274 850.078ZM182.221 850.375C182.875 850.424 183.531 850.474 184.192 850.524L184.496 846.536C183.835 846.486 183.177 846.436 182.523 846.386L182.221 850.375ZM186.168 850.676C186.821 850.726 187.477 850.777 188.136 850.828L188.445 846.84C187.785 846.789 187.129 846.738 186.475 846.688L186.168 850.676ZM190.117 850.982C190.769 851.033 191.423 851.084 192.081 851.136L192.394 847.148C191.736 847.096 191.081 847.045 190.429 846.994L190.117 850.982ZM194.064 851.292C194.715 851.344 195.369 851.396 196.026 851.448L196.344 847.461C195.686 847.408 195.031 847.356 194.38 847.305L194.064 851.292ZM198.004 851.606C198.658 851.659 199.314 851.711 199.973 851.765L200.295 847.778C199.635 847.724 198.978 847.672 198.324 847.619L198.004 851.606ZM201.945 851.924C202.601 851.978 203.26 852.031 203.923 852.086L204.249 848.099C203.586 848.045 202.926 847.991 202.269 847.938L201.945 851.924ZM205.888 852.247C206.546 852.301 207.208 852.355 207.873 852.41L208.202 848.424C207.537 848.369 206.874 848.314 206.215 848.26L205.888 852.247ZM209.833 852.573C210.488 852.627 211.147 852.682 211.809 852.737L212.142 848.751C211.479 848.696 210.82 848.641 210.164 848.586L209.833 852.573ZM213.782 852.903C214.434 852.957 215.09 853.013 215.749 853.068L216.085 849.082C215.426 849.027 214.769 848.971 214.116 848.917L213.782 852.903ZM217.736 853.236C218.385 853.291 219.037 853.347 219.693 853.403L220.032 849.417C219.376 849.361 218.723 849.306 218.074 849.251L217.736 853.236ZM221.669 853.571C222.324 853.627 222.982 853.684 223.643 853.741L223.986 849.756C223.324 849.699 222.665 849.642 222.01 849.586L221.669 853.571ZM225.607 853.91C226.265 853.967 226.927 854.024 227.591 854.082L227.937 850.097C227.272 850.039 226.61 849.982 225.952 849.925L225.607 853.91ZM229.554 854.252C230.207 854.309 230.864 854.366 231.524 854.424L231.872 850.439C231.212 850.381 230.555 850.324 229.901 850.267L229.554 854.252ZM233.511 854.598C234.159 854.655 234.811 854.712 235.467 854.77L235.817 850.785C235.162 850.727 234.509 850.67 233.86 850.613L233.511 854.598ZM237.442 854.944C238.098 855.002 238.758 855.06 239.421 855.119L239.774 851.135C239.111 851.076 238.451 851.017 237.794 850.959L237.442 854.944ZM241.38 855.293C242.037 855.351 242.696 855.41 243.359 855.469L243.714 851.485C243.051 851.426 242.392 851.367 241.735 851.309L241.38 855.293ZM245.333 855.646C245.984 855.704 246.638 855.763 247.295 855.822L247.652 851.838C246.995 851.779 246.341 851.72 245.69 851.662L245.333 855.646ZM249.275 856C249.929 856.059 250.586 856.118 251.246 856.177L251.606 852.194C250.946 852.134 250.288 852.075 249.633 852.016L249.275 856ZM253.209 856.355C253.866 856.414 254.526 856.474 255.189 856.534L255.551 852.551C254.887 852.491 254.227 852.431 253.569 852.371L253.209 856.355ZM257.161 856.714C257.812 856.773 258.466 856.833 259.122 856.893L259.486 852.909C258.829 852.849 258.175 852.79 257.524 852.73L257.161 856.714ZM261.101 857.073C261.757 857.133 262.416 857.194 263.078 857.255L263.443 853.271C262.781 853.211 262.122 853.15 261.466 853.09L261.101 857.073ZM265.036 857.434C265.692 857.495 266.351 857.555 267.012 857.616L267.379 853.633C266.717 853.572 266.059 853.512 265.402 853.451L265.036 857.434ZM268.996 857.799C269.645 857.859 270.297 857.92 270.951 857.98L271.32 853.997C270.665 853.937 270.013 853.876 269.364 853.816L268.996 857.799ZM272.923 858.163C273.583 858.224 274.246 858.286 274.911 858.347L275.281 854.365C274.615 854.303 273.952 854.241 273.292 854.18L272.923 858.163ZM276.867 858.53C277.52 858.59 278.175 858.651 278.833 858.713L279.205 854.73C278.547 854.669 277.891 854.608 277.238 854.547L276.867 858.53ZM280.816 858.898C281.148 858.929 281.48 858.96 281.814 858.991L282.186 855.009C281.853 854.978 281.52 854.946 281.188 854.915L280.816 858.898Z" fill="white"/>
<path d="M271.5 850V847.625C271.5 847.026 270.978 846.561 270.383 846.631L255.5 848.382M271.5 850L278.08 850.415C278.349 850.432 278.599 850.556 278.775 850.76L281.433 853.842C281.758 854.219 281.756 854.779 281.428 855.154L278.799 858.159C278.609 858.376 278.335 858.5 278.046 858.5H271.5M271.5 850H262L259.486 853.352C259.203 853.73 259.223 854.254 259.534 854.61L262.5 858L271.5 858.5M271.5 858.5L257 860.072M257 860.072C257 860.072 252.897 859 252 855.5C250.703 850.441 255.5 848.382 255.5 848.382M257 860.072L240 861.916M255.5 848.382L238 850.441M238 850.441L229.963 851.387C229.427 851.45 229.037 851.928 229.084 852.466L229.912 861.982C229.96 862.541 230.458 862.95 231.016 862.89L240 861.916M238 850.441C238 850.441 242.729 851 243.5 855.5C244.197 859.572 240 861.916 240 861.916" stroke="white"/>
</svg>
