<svg width="700" height="700" viewBox="0 0 708 784" fill="none" xmlns="http://www.w3.org/2000/svg">
<path d="M99.7597 161.35L327.72 100.561C342.796 96.5401 358.695 103.14 366.492 116.655L629.234 572.075C640.577 591.735 630.171 616.802 608.24 622.65L380.28 683.44C365.204 687.46 349.305 680.86 341.508 667.345L78.7656 211.925C67.4233 192.265 77.8289 167.198 99.7597 161.35Z" stroke="white" stroke-width="3"/>
<path d="M329.742 633.418L83.7581 206.314L366.259 130.582L612.741 557.685L329.742 633.418Z" stroke="white"/>
<path d="M499.877 616.06C503.635 625.997 499.575 636.488 491.165 639.669C482.755 642.85 472.769 637.671 469.011 627.735C465.253 617.798 469.312 607.307 477.722 604.126C486.132 600.945 496.119 606.124 499.877 616.06Z" stroke="white" stroke-width="2"/>
<path d="M105 160C66.5 168 56.8336 210 68.5 230C78.9998 248 309.5 647 325 674.5C341 700 362 707.5 392.5 698.5C422.5 689.5 597.998 643.5 611.498 640C635.498 633.778 640.498 590.5 629.998 573.5" stroke="white" stroke-width="3"/>
<path d="M164.41 164.233L276.36 134.598C277.415 134.319 278.496 134.947 278.775 136.002C279.055 137.057 278.426 138.138 277.371 138.418L165.421 168.053C164.366 168.332 163.285 167.704 163.006 166.649C162.727 165.594 163.355 164.513 164.41 164.233Z" stroke="white"/>
</svg>
